SplineFontDB: 3.2
FontName: UmbaranST-Regular
FullName: Umbaran ST Regular
FamilyName: Umbaran ST
Weight: Regular
Copyright: 
Version: 001.002
ItalicAngle: 0
UnderlinePosition: -100
UnderlineWidth: 50
Ascent: 800
Descent: 200
InvalidEm: 0
sfntRevision: 0x00010000
LayerCount: 2
Layer: 0 1 "Back" 1
Layer: 1 1 "Fore" 0
XUID: [1021 764 -1482030943 4048]
StyleMap: 0x0040
FSType: 0
OS2Version: 4
OS2_WeightWidthSlopeOnly: 0
OS2_UseTypoMetrics: 0
CreationTime: 1634242324
ModificationTime: 1635371132
PfmFamily: 17
TTFWeight: 400
TTFWidth: 5
LineGap: 90
VLineGap: 0
Panose: 2 0 5 3 0 0 0 0 0 0
OS2TypoAscent: 800
OS2TypoAOffset: 0
OS2TypoDescent: -200
OS2TypoDOffset: 0
OS2TypoLinegap: 90
OS2WinAscent: 703
OS2WinAOffset: 0
OS2WinDescent: 0
OS2WinDOffset: 0
HheadAscent: 703
HheadAOffset: 0
HheadDescent: 0
HheadDOffset: 0
OS2SubXSize: 650
OS2SubYSize: 700
OS2SubXOff: 0
OS2SubYOff: 140
OS2SupXSize: 650
OS2SupYSize: 700
OS2SupXOff: 0
OS2SupYOff: 480
OS2StrikeYSize: 49
OS2StrikeYPos: 258
OS2CapHeight: 683
OS2Vendor: 'CLGR'
OS2CodePages: 00000001.00000000
OS2UnicodeRanges: 00000003.00000000.00000000.00000000
MarkAttachClasses: 1
DEI: 91125
TtTable: prep
PUSHW_1
 511
SCANCTRL
PUSHB_1
 4
SCANTYPE
EndTTInstrs
ShortTable: cvt  2
  33
  633
EndShort
ShortTable: maxp 16
  1
  0
  49
  122
  7
  0
  0
  2
  0
  1
  1
  0
  64
  0
  0
  0
EndShort
LangName: 1033 "" "" "" "" "" "Version 001.002" "" "" "" "" "Created with Calligraphr.com" "" "" "" "" "" "Umbaran" "Regular"
GaspTable: 1 65535 15 1
Encoding: UnicodeBmp
UnicodeInterp: none
NameList: AGL For New Fonts
DisplaySize: -128
AntiAlias: 1
FitToEm: 0
WinInfo: 0 29 12
BeginPrivate: 0
EndPrivate
BeginChars: 65538 49

StartChar: .notdef
Encoding: 65536 -1 0
Width: 364
Flags: W
LayerCount: 2
Fore
SplineSet
33 0 m 1,0,-1
 33 666 l 1,1,-1
 298 666 l 1,2,-1
 298 0 l 1,3,-1
 33 0 l 1,0,-1
66 33 m 1,4,-1
 265 33 l 1,5,-1
 265 633 l 1,6,-1
 66 633 l 1,7,-1
 66 33 l 1,4,-1
EndSplineSet
EndChar

StartChar: exclam
Encoding: 33 33 5
Width: 349
Flags: W
LayerCount: 2
Fore
SplineSet
220 654 m 0,0,1
 257 671 257 671 271 671 c 0,2,3
 292 671 292 671 292 633 c 0,4,5
 292 609 292 609 288 602 c 128,-1,6
 284 595 284 595 268 589 c 0,7,8
 207 567 207 567 169 513 c 128,-1,9
 131 459 131 459 131 394 c 0,10,11
 131 375 131 375 136 350 c 0,12,13
 146 305 146 305 152 296 c 0,14,15
 155 292 155 292 155 288 c 0,16,17
 155 278 155 278 139 262 c 0,18,19
 119 240 119 240 107 240 c 128,-1,20
 95 240 95 240 75 285 c 0,21,22
 53 335 53 335 53 390 c 0,23,24
 53 451 53 451 79 508 c 0,25,26
 101 554 101 554 139.5 594 c 128,-1,27
 178 634 178 634 220 654 c 0,0,1
168 211 m 2,28,29
 193 231 193 231 201 231 c 0,30,31
 207 231 207 231 212 223 c 0,32,33
 216 217 216 217 255 198 c 0,34,35
 282 185 282 185 287 177.5 c 128,-1,36
 292 170 292 170 292 144 c 0,37,38
 292 123 292 123 290 116.5 c 128,-1,39
 288 110 288 110 281 110 c 0,40,41
 276 110 276 110 272 111 c 0,42,43
 250 114 250 114 214.5 133.5 c 128,-1,44
 179 153 179 153 162 170 c 2,45,-1
 144 190 l 1,46,-1
 168 211 l 2,28,29
EndSplineSet
EndChar

StartChar: comma
Encoding: 44 44 6
Width: 350
Flags: W
LayerCount: 2
Fore
SplineSet
219 662 m 0,0,1
 251 678 251 678 271 678 c 2,2,-1
 273 678 l 2,3,4
 286 677 286 677 289.5 671 c 128,-1,5
 293 665 293 665 293 645 c 0,6,7
 293 622 293 622 287 614.5 c 128,-1,8
 281 607 281 607 250 591 c 0,9,10
 194 562 194 562 165.5 525 c 128,-1,11
 137 488 137 488 130 433 c 2,12,-1
 125 396 l 1,13,-1
 53 396 l 1,14,-1
 54 436 l 2,15,16
 55 497 55 497 104 563.5 c 128,-1,17
 153 630 153 630 219 662 c 0,0,1
EndSplineSet
EndChar

StartChar: hyphen
Encoding: 45 45 7
Width: 357
Flags: W
LayerCount: 2
Fore
SplineSet
240 663 m 0,0,1
 268 673 268 673 279 673 c 0,2,3
 300 673 300 673 300 644 c 0,4,5
 300 620 300 620 291.5 608.5 c 128,-1,6
 283 597 283 597 255 584 c 0,7,8
 219 568 219 568 213 568 c 128,-1,9
 207 568 207 568 189 593 c 0,10,11
 175 610 175 610 175 617 c 0,12,13
 175 623 175 623 185 633 c 0,14,15
 195 645 195 645 240 663 c 0,0,1
93 539 m 0,16,17
 117 576 117 576 124 576 c 128,-1,18
 131 576 131 576 150 550 c 2,19,-1
 170 524 l 1,20,-1
 152 484 l 2,21,22
 132 441 132 441 132 392 c 0,23,24
 132 341 132 341 152 298 c 2,25,-1
 171 258 l 1,26,-1
 148 236 l 2,27,28
 128 218 128 218 117 218 c 2,29,-1
 115 218 l 1,30,31
 103 222 103 222 81 269 c 0,32,33
 53 326 53 326 53 394 c 0,34,35
 53 477 53 477 93 539 c 0,16,17
185 193 m 2,36,37
 206 216 206 216 213 216 c 0,38,39
 225 216 225 216 259 197.5 c 128,-1,40
 293 179 293 179 296 171 c 0,41,42
 300 160 300 160 300 148 c 0,43,44
 300 129 300 129 288 120 c 0,45,46
 283 115 283 115 269 115 c 0,47,48
 230 115 230 115 188 150 c 2,49,-1
 164 170 l 1,50,-1
 185 193 l 2,36,37
EndSplineSet
EndChar

StartChar: period
Encoding: 46 46 8
Width: 356
Flags: W
LayerCount: 2
Fore
SplineSet
56 392 m 0,0,1
 60 399 60 399 84 399 c 0,2,3
 86 399 86 399 89.5 398.5 c 128,-1,4
 93 398 93 398 95 398 c 2,5,-1
 127 396 l 1,6,-1
 135 352 l 2,7,8
 158 238 158 238 263 192 c 0,9,10
 288 181 288 181 294 175.5 c 128,-1,11
 300 170 300 170 300 157 c 0,12,13
 300 155 300 155 299.5 150 c 128,-1,14
 299 145 299 145 299 142 c 0,15,16
 296 106 296 106 277 106 c 0,17,18
 261 106 261 106 225 124 c 0,19,20
 181 145 181 145 143 183 c 128,-1,21
 105 221 105 221 84 266 c 0,22,23
 53 330 53 330 53 375 c 0,24,25
 53 388 53 388 56 392 c 0,0,1
EndSplineSet
EndChar

StartChar: slash
Encoding: 47 47 9
Width: 347
Flags: W
LayerCount: 2
Fore
SplineSet
222 665 m 0,0,1
 256 680 256 680 272 680 c 0,2,3
 282 680 282 680 285.5 676.5 c 128,-1,4
 289 673 289 673 289 661 c 0,5,6
 289 659 289 659 288.5 652.5 c 128,-1,7
 288 646 288 646 288 642 c 0,8,9
 286 615 286 615 282.5 608.5 c 128,-1,10
 279 602 279 602 260 597 c 0,11,12
 232 590 232 590 196 554.5 c 128,-1,13
 160 519 160 519 140 480 c 0,14,15
 127 452 127 452 118 444 c 128,-1,16
 109 436 109 436 93 434 c 0,17,18
 91 434 91 434 87.5 433.5 c 128,-1,19
 84 433 84 433 83 433 c 0,20,21
 56 433 56 433 56 456 c 0,22,23
 56 472 56 472 66 498 c 0,24,25
 108 613 108 613 222 665 c 0,0,1
77 367 m 0,26,27
 79 367 79 367 84 366.5 c 128,-1,28
 89 366 89 366 92 366 c 0,29,30
 115 365 115 365 121.5 359 c 128,-1,31
 128 353 128 353 136 330 c 0,32,33
 148 295 148 295 181 260 c 128,-1,34
 214 225 214 225 250 209 c 0,35,36
 279 196 279 196 284.5 189 c 128,-1,37
 290 182 290 182 290 156 c 0,38,39
 290 132 290 132 287.5 126 c 128,-1,40
 285 120 285 120 272 120 c 0,41,42
 225 120 225 120 157 179 c 128,-1,43
 89 238 89 238 67 299 c 0,44,45
 53 335 53 335 53 355 c 0,46,47
 53 367 53 367 77 367 c 0,26,27
EndSplineSet
EndChar

StartChar: zero
Encoding: 48 48 10
Width: 681
Flags: W
LayerCount: 2
Fore
SplineSet
268 384 m 2,0,1
 160 465 160 465 150 469 c 0,2,3
 147 470 147 470 143 470 c 0,4,5
 129 470 129 470 129 409 c 0,6,7
 130 320 130 320 186 260.5 c 128,-1,8
 242 201 242 201 327 198 c 2,9,-1
 373 196 l 1,10,-1
 375 250 l 1,11,-1
 378 303 l 1,12,-1
 268 384 l 2,0,1
369 432 m 0,13,14
 196 552 196 552 187 552 c 0,15,16
 185 552 185 552 185 550 c 0,17,18
 185 546 185 546 316 448 c 0,19,20
 448 351 448 351 452 339 c 0,21,22
 457 322 457 322 457 283 c 0,23,24
 457 240 457 240 468 240 c 0,25,26
 478 240 478 240 503.5 269 c 128,-1,27
 529 298 529 298 529 309 c 0,28,29
 529 319 529 319 369 432 c 0,13,14
496 556 m 0,30,31
 470 584 470 584 461 584 c 0,32,33
 451 584 451 584 434.5 553.5 c 128,-1,34
 418 523 418 523 418 507 c 0,35,36
 418 506 418 506 418 504 c 2,37,-1
 419 502 l 2,38,39
 422 493 422 493 473.5 455.5 c 128,-1,40
 525 418 525 418 544 410 c 0,41,42
 545 410 545 410 546 410 c 2,43,-1
 548 409 l 2,44,45
 553 409 553 409 553 419 c 0,46,47
 553 420 553 420 551 442 c 0,48,49
 543 504 543 504 496 556 c 0,30,31
377 621 m 2,50,51
 377 624 377 624 356 624 c 0,52,53
 302 624 302 624 283 616 c 0,54,55
 265 609 265 609 265 606 c 0,56,57
 265 602 265 602 300.5 577.5 c 128,-1,58
 336 553 336 553 340 553 c 0,59,60
 343 553 343 553 352 570 c 128,-1,61
 361 587 361 587 369 604 c 2,62,-1
 377 621 l 2,50,51
287 696 m 0,63,64
 308 699 308 699 334 699 c 0,65,66
 393 699 393 699 433 686 c 0,67,68
 495 666 495 666 559 596 c 0,69,70
 631 518 631 518 631 410 c 0,71,72
 631 328 631 328 587.5 256 c 128,-1,73
 544 184 544 184 466 146 c 0,74,75
 436 131 436 131 415.5 127.5 c 128,-1,76
 395 124 395 124 341 124 c 0,77,78
 265 124 265 124 223 141 c 128,-1,79
 181 158 181 158 133 209 c 0,80,81
 84 260 84 260 68.5 299 c 128,-1,82
 53 338 53 338 53 408 c 0,83,84
 53 460 53 460 56.5 480 c 128,-1,85
 60 500 60 500 76 532 c 0,86,87
 107 596 107 596 164.5 640.5 c 128,-1,88
 222 685 222 685 287 696 c 0,63,64
205 312 m 128,-1,90
 189 312 189 312 179.5 323 c 128,-1,91
 170 334 170 334 170 349 c 128,-1,92
 170 364 170 364 179 374 c 128,-1,93
 188 384 188 384 205 384 c 128,-1,94
 222 384 222 384 231 374 c 128,-1,95
 240 364 240 364 240 349 c 128,-1,96
 240 334 240 334 230.5 323 c 128,-1,89
 221 312 221 312 205 312 c 128,-1,90
275 307 m 0,97,98
 292 319 292 319 298 319 c 0,99,100
 305 319 305 319 322 305 c 0,101,102
 336 294 336 294 336 283 c 0,103,104
 336 278 336 278 333 267 c 0,105,106
 324 240 324 240 296 240 c 0,107,108
 281 240 281 240 269 250 c 128,-1,109
 257 260 257 260 257 277 c 0,110,111
 257 296 257 296 275 307 c 0,97,98
EndSplineSet
EndChar

StartChar: one
Encoding: 49 49 11
Width: 678
Flags: W
LayerCount: 2
Fore
SplineSet
469 236 m 0,0,1
 469 240 469 240 393 240 c 0,2,3
 342 240 342 240 328 237.5 c 128,-1,4
 314 235 314 235 309 225 c 0,5,6
 301 209 301 209 301 203 c 0,7,8
 301 193 301 193 325 193 c 0,9,10
 340 193 340 193 351 194 c 0,11,12
 384 197 384 197 426.5 212 c 128,-1,13
 469 227 469 227 469 236 c 0,0,1
538 494 m 0,14,15
 524 518 524 518 501 518 c 0,16,17
 476 518 476 518 452 491 c 0,18,19
 440 477 440 477 402.5 406.5 c 128,-1,20
 365 336 365 336 365 328 c 128,-1,21
 365 320 365 320 452 320 c 2,22,-1
 539 320 l 1,23,-1
 549 349 l 2,24,25
 556 374 556 374 556 401 c 0,26,27
 556 460 556 460 538 494 c 0,14,15
275 436 m 2,28,29
 240 469 240 469 215 516 c 2,30,-1
 191 562 l 1,31,-1
 167 529 l 2,32,33
 128 474 128 474 128 405 c 0,34,35
 128 391 128 391 132 367 c 0,36,37
 140 329 140 329 152.5 306 c 128,-1,38
 165 283 165 283 191 258 c 2,39,-1
 219 231 l 1,40,-1
 240 267 l 2,41,42
 252 287 252 287 285 353 c 2,43,-1
 308 402 l 1,44,-1
 275 436 l 2,28,29
431 603 m 2,45,46
 397 621 397 621 332 621 c 0,47,48
 308 621 308 621 295 616 c 0,49,50
 277 609 277 609 277 592 c 0,51,52
 277 576 277 576 293.5 545.5 c 128,-1,53
 310 515 310 515 327 498 c 2,54,-1
 347 480 l 1,55,-1
 370 517 l 2,56,57
 395 556 395 556 424 572 c 2,58,-1
 455 590 l 1,59,-1
 431 603 l 2,45,46
243 682 m 0,60,61
 277 694 277 694 339 694 c 2,62,-1
 354 694 l 2,63,64
 424 693 424 693 468.5 672.5 c 128,-1,65
 513 652 513 652 557 602 c 0,66,67
 596 557 596 557 612 517 c 128,-1,68
 628 477 628 477 628 418 c 0,69,70
 628 414 628 414 627.5 405.5 c 128,-1,71
 627 397 627 397 627 392 c 0,72,73
 626 343 626 343 621 322.5 c 128,-1,74
 616 302 616 302 601 274 c 0,75,76
 578 233 578 233 538 195 c 128,-1,77
 498 157 498 157 455 138 c 0,78,79
 410 118 410 118 359 118 c 2,80,-1
 345 118 l 2,81,82
 219 119 219 119 136 201.5 c 128,-1,83
 53 284 53 284 53 408 c 0,84,85
 53 500 53 500 106.5 577 c 128,-1,86
 160 654 160 654 243 682 c 0,60,61
EndSplineSet
EndChar

StartChar: two
Encoding: 50 50 12
Width: 674
Flags: W
LayerCount: 2
Fore
SplineSet
239 376 m 0,0,1
 226 400 226 400 201 400 c 0,2,3
 175 400 175 400 152 378 c 2,4,-1
 126 354 l 1,5,-1
 141 321 l 2,6,7
 152 295 152 295 185.5 260.5 c 128,-1,8
 219 226 219 226 233 226 c 2,9,-1
 235 226 l 2,10,11
 248 229 248 229 248 307 c 0,12,13
 248 360 248 360 239 376 c 0,0,1
524 511 m 0,14,15
 496 559 496 559 475 574 c 2,16,-1
 449 594 l 1,17,-1
 449 413 l 2,18,19
 449 232 449 232 455 232 c 0,20,21
 464 232 464 232 490.5 262.5 c 128,-1,22
 517 293 517 293 531 320 c 0,23,24
 551 360 551 360 551 407 c 0,25,26
 551 465 551 465 524 511 c 0,14,15
245 539 m 2,27,28
 245 594 245 594 237 598 c 1,29,-1
 235 598 l 2,30,31
 223 598 223 598 194 570.5 c 128,-1,32
 165 543 165 543 149 517 c 0,33,34
 129 483 129 483 129 470 c 0,35,36
 129 466 129 466 132 466 c 0,37,38
 133 466 133 466 137 468 c 0,39,40
 150 473 150 473 195 478 c 2,41,-1
 245 484 l 1,42,-1
 245 539 l 2,27,28
367 410 m 0,43,44
 366 561 366 561 363 590.5 c 128,-1,45
 360 620 360 620 349 622 c 0,46,47
 333 625 333 625 327 619 c 128,-1,48
 321 613 321 613 321 440 c 0,49,50
 321 201 321 201 329 196 c 0,51,52
 338 193 338 193 353 196 c 0,53,54
 363 199 363 199 365.5 213.5 c 128,-1,55
 368 228 368 228 368 288 c 0,56,57
 368 357 368 357 367 410 c 0,43,44
242 686 m 0,58,59
 287 702 287 702 335 702 c 0,60,61
 446 702 446 702 530.5 625.5 c 128,-1,62
 615 549 615 549 623 435 c 0,63,64
 624 425 624 425 624 406 c 0,65,66
 624 322 624 322 578 250 c 0,67,68
 539 190 539 190 474 156 c 128,-1,69
 409 122 409 122 335 122 c 2,70,-1
 318 122 l 1,71,72
 238 127 238 127 173 170 c 128,-1,73
 108 213 108 213 71 286 c 0,74,75
 59 310 59 310 56 332 c 128,-1,76
 53 354 53 354 53 412 c 0,77,78
 53 472 53 472 56.5 492.5 c 128,-1,79
 60 513 60 513 75 541 c 0,80,81
 99 586 99 586 147 627.5 c 128,-1,82
 195 669 195 669 242 686 c 0,58,59
EndSplineSet
EndChar

StartChar: three
Encoding: 51 51 13
Width: 682
Flags: W
LayerCount: 2
Fore
SplineSet
232 479 m 0,0,1
 177 536 177 536 171 536 c 0,2,3
 164 536 164 536 153 511 c 128,-1,4
 142 486 142 486 134 452 c 0,5,6
 130 435 130 435 130 411 c 0,7,8
 130 350 130 350 160 299 c 0,9,10
 174 275 174 275 200 249.5 c 128,-1,11
 226 224 226 224 236 224 c 0,12,13
 244 224 244 224 276 280.5 c 128,-1,14
 308 337 308 337 308 350 c 0,15,16
 308 397 308 397 232 479 c 0,0,1
533 510 m 0,17,18
 514 544 514 544 509 544 c 0,19,20
 502 544 502 544 488 512 c 0,21,22
 478 491 478 491 478 477 c 0,23,24
 478 466 478 466 484 444 c 0,25,26
 491 422 491 422 491 389 c 0,27,28
 491 330 491 330 469 273 c 0,29,30
 459 246 459 246 459 236 c 0,31,32
 459 232 459 232 461 232 c 0,33,34
 474 232 474 232 504.5 270.5 c 128,-1,35
 535 309 535 309 545 338 c 128,-1,36
 555 367 555 367 555 407 c 0,37,38
 555 466 555 466 533 510 c 0,17,18
405 614 m 0,39,40
 376 623 376 623 343 623 c 0,41,42
 305 623 305 623 274 612 c 0,43,44
 238 598 238 598 238 597 c 0,45,46
 238 589 238 589 291 531 c 0,47,48
 387 431 387 431 387 353 c 0,49,50
 387 298 387 298 343 233 c 0,51,52
 325 205 325 205 325 198 c 0,53,54
 325 192 325 192 335 192 c 128,-1,55
 345 192 345 192 376 258 c 0,56,57
 411 336 411 336 411 390 c 0,58,59
 411 420 411 420 401 440 c 0,60,61
 389 462 389 462 389 479 c 128,-1,62
 389 496 389 496 412 544 c 0,63,64
 436 589 436 589 436 598 c 0,65,66
 436 605 436 605 405 614 c 0,39,40
251 686 m 0,67,68
 298 703 298 703 339 703 c 0,69,70
 370 703 370 703 416 692 c 0,71,72
 546 659 546 659 610 522 c 0,73,74
 632 475 632 475 632 412 c 0,75,76
 632 352 632 352 612 300 c 0,77,78
 591 246 591 246 543.5 200.5 c 128,-1,79
 496 155 496 155 441 136 c 0,80,81
 393 120 393 120 343 120 c 0,82,83
 230 120 230 120 146 196 c 128,-1,84
 62 272 62 272 54 389 c 0,85,86
 54 392 54 392 53.5 399 c 128,-1,87
 53 406 53 406 53 410 c 0,88,89
 53 505 53 505 106.5 580 c 128,-1,90
 160 655 160 655 251 686 c 0,67,68
EndSplineSet
EndChar

StartChar: four
Encoding: 52 52 14
Width: 685
Flags: W
LayerCount: 2
Fore
SplineSet
403 225 m 0,0,1
 402 238 402 238 394.5 241 c 128,-1,2
 387 244 387 244 357 246 c 0,3,4
 353 246 353 246 346 246.5 c 128,-1,5
 339 247 339 247 336 247 c 0,6,7
 313 247 313 247 307 241 c 128,-1,8
 301 235 301 235 301 214 c 0,9,10
 301 198 301 198 306.5 195 c 128,-1,11
 312 192 312 192 343 192 c 0,12,13
 377 192 377 192 390.5 198 c 128,-1,14
 404 204 404 204 404 218 c 0,15,16
 404 219 404 219 403.5 221 c 128,-1,17
 403 223 403 223 403 225 c 0,0,1
390 497 m 0,18,19
 372 512 372 512 353 512 c 0,20,21
 333 512 333 512 317 496 c 0,22,23
 307 486 307 486 304 470 c 128,-1,24
 301 454 301 454 301 404 c 2,25,-1
 301 327 l 1,26,-1
 355 330 l 1,27,-1
 409 332 l 1,28,-1
 409 407 l 2,29,30
 409 459 409 459 406 473 c 128,-1,31
 403 487 403 487 390 497 c 0,18,19
446 594 m 0,32,33
 397 621 397 621 333 621 c 0,34,35
 306 621 306 621 286 615 c 0,36,37
 216 593 216 593 173 535.5 c 128,-1,38
 130 478 130 478 130 406 c 0,39,40
 130 317 130 317 193 256 c 2,41,-1
 221 229 l 1,42,-1
 221 350 l 2,43,44
 221 460 221 460 226.5 491.5 c 128,-1,45
 232 523 232 523 256 548 c 0,46,47
 295 590 295 590 353 590 c 0,48,49
 410 590 410 590 451 549 c 0,50,51
 474 526 474 526 483 480.5 c 128,-1,52
 492 435 492 435 493 337 c 0,53,54
 493 262 493 262 500 262 c 0,55,56
 503 262 503 262 506 265 c 0,57,58
 528 283 528 283 542 327 c 128,-1,59
 556 371 556 371 556 417 c 0,60,61
 556 445 556 445 550 469 c 0,62,63
 540 504 540 504 510.5 539 c 128,-1,64
 481 574 481 574 446 594 c 0,32,33
257 685 m 0,65,66
 293 696 293 696 336 696 c 0,67,68
 430 696 430 696 497 656 c 0,69,70
 527 637 527 637 560 598.5 c 128,-1,71
 593 560 593 560 609 524 c 0,72,73
 635 466 635 466 635 404 c 0,74,75
 635 321 635 321 589 250 c 128,-1,76
 543 179 543 179 462 141 c 0,77,78
 431 126 431 126 412 121.5 c 128,-1,79
 393 117 393 117 361 117 c 2,80,-1
 345 117 l 2,81,82
 285 117 285 117 243 133 c 0,83,84
 155 169 155 169 104 244 c 128,-1,85
 53 319 53 319 53 407 c 0,86,87
 53 472 53 472 81 531 c 0,88,89
 134 645 134 645 257 685 c 0,65,66
EndSplineSet
EndChar

StartChar: five
Encoding: 53 53 15
Width: 674
Flags: W
LayerCount: 2
Fore
SplineSet
551 395 m 0,0,1
 552 404 552 404 552 421 c 0,2,3
 552 450 552 450 548 450 c 0,4,5
 539 450 539 450 446 355 c 0,6,7
 351 256 351 256 339 256 c 0,8,9
 326 256 326 256 286 298 c 0,10,11
 241 344 241 344 188.5 389 c 128,-1,12
 136 434 136 434 127 434 c 2,13,-1
 126 434 l 1,14,15
 121 427 121 427 121 412 c 0,16,17
 121 385 121 385 133 346 c 0,18,19
 143 310 143 310 176 271 c 128,-1,20
 209 232 209 232 243 215 c 0,21,22
 287 193 287 193 336 193 c 0,23,24
 418 193 418 193 481 250.5 c 128,-1,25
 544 308 544 308 551 395 c 0,0,1
427 603 m 0,26,27
 401 616 401 616 393 616 c 0,28,29
 382 616 382 616 379.5 596 c 128,-1,30
 377 576 377 576 377 506 c 2,31,-1
 377 396 l 1,32,-1
 441 464 l 2,33,34
 505 533 505 533 505 542 c 0,35,36
 505 550 505 550 480.5 569.5 c 128,-1,37
 456 589 456 589 427 603 c 0,26,27
295 517 m 2,38,39
 293 576 293 576 290.5 594.5 c 128,-1,40
 288 613 288 613 281 614 c 2,41,-1
 279 614 l 2,42,43
 261 614 261 614 223.5 589.5 c 128,-1,44
 186 565 186 565 170 542 c 0,45,46
 165 534 165 534 165 529 c 0,47,48
 165 518 165 518 222 467 c 0,49,50
 277 415 277 415 290 415 c 2,51,-1
 291 415 l 1,52,53
 295 419 295 419 295 490 c 2,54,-1
 295 517 l 2,38,39
287 696 m 0,55,56
 310 700 310 700 338 700 c 0,57,58
 455 700 455 700 542 613 c 0,59,60
 587 567 587 567 605.5 524 c 128,-1,61
 624 481 624 481 624 421 c 0,62,63
 624 417 624 417 623.5 408 c 128,-1,64
 623 399 623 399 623 394 c 0,65,66
 619 330 619 330 603 289.5 c 128,-1,67
 587 249 587 249 549 209 c 0,68,69
 514 170 514 170 467 146 c 0,70,71
 436 131 436 131 415 127.5 c 128,-1,72
 394 124 394 124 337 124 c 0,73,74
 279 124 279 124 259.5 127.5 c 128,-1,75
 240 131 240 131 211 146 c 0,76,77
 125 191 125 191 80 274 c 0,78,79
 61 310 61 310 57 329 c 128,-1,80
 53 348 53 348 53 408 c 0,81,82
 53 467 53 467 56.5 486.5 c 128,-1,83
 60 506 60 506 75 534 c 0,84,85
 110 600 110 600 165 642.5 c 128,-1,86
 220 685 220 685 287 696 c 0,55,56
EndSplineSet
EndChar

StartChar: six
Encoding: 54 54 16
Width: 671
Flags: W
LayerCount: 2
Fore
SplineSet
524 509 m 128,-1,1
 512 521 512 521 437 521 c 0,2,3
 383 521 383 521 383 511 c 0,4,5
 383 498 383 498 402 476 c 0,6,7
 426 447 426 447 426 432 c 128,-1,8
 426 417 426 417 354 318 c 0,9,10
 282 216 282 216 282 210 c 0,11,12
 282 202 282 202 300 197 c 128,-1,13
 318 192 318 192 343 192 c 0,14,15
 409 192 409 192 470 237.5 c 128,-1,16
 531 283 531 283 550 346 c 0,17,18
 559 376 559 376 559 391 c 0,19,20
 559 407 559 407 549 444 c 0,21,0
 536 497 536 497 524 509 c 128,-1,1
406 613 m 0,22,23
 378 624 378 624 347 624 c 0,24,25
 280 624 280 624 222 584 c 0,26,27
 179 554 179 554 155.5 507 c 128,-1,28
 132 460 132 460 132 408 c 0,29,30
 132 340 132 340 170 284 c 0,31,32
 192 250 192 250 201 250 c 2,33,-1
 202 250 l 2,34,35
 210 253 210 253 270 337.5 c 128,-1,36
 330 422 330 422 330 430 c 128,-1,37
 330 438 330 438 297 477 c 0,38,39
 245 537 245 537 245 553 c 0,40,41
 245 561 245 561 253 572 c 0,42,43
 262 586 262 586 274.5 589 c 128,-1,44
 287 592 287 592 340 593 c 0,45,46
 351 593 351 593 369.5 593.5 c 128,-1,47
 388 594 388 594 395 594 c 128,-1,48
 402 594 402 594 408.5 594 c 128,-1,49
 415 594 415 594 419 593.5 c 128,-1,50
 423 593 423 593 424 593 c 2,51,-1
 428 593 l 2,52,53
 434 593 434 593 434 595 c 0,54,55
 434 601 434 601 406 613 c 0,22,23
236 679 m 0,56,57
 275 695 275 695 340 695 c 0,58,59
 416 695 416 695 459 674 c 0,60,61
 550 629 550 629 595 538 c 0,62,63
 612 503 612 503 616.5 484.5 c 128,-1,64
 621 466 621 466 621 423 c 2,65,-1
 621 396 l 2,66,67
 621 334 621 334 617.5 314.5 c 128,-1,68
 614 295 614 295 598 265 c 0,69,70
 578 228 578 228 543 195.5 c 128,-1,71
 508 163 508 163 467 143 c 0,72,73
 430 125 430 125 358 122 c 0,74,75
 354 122 354 122 346 121.5 c 128,-1,76
 338 121 338 121 335 121 c 0,77,78
 278 121 278 121 236 137.5 c 128,-1,79
 194 154 194 154 151 192 c 0,80,81
 53 282 53 282 53 404 c 0,82,83
 53 474 53 474 87 542 c 0,84,85
 107 581 107 581 151 622 c 128,-1,86
 195 663 195 663 236 679 c 0,56,57
448 402 m 0,87,88
 469 423 469 423 490 423 c 0,89,90
 504 423 504 423 513 414 c 128,-1,91
 522 405 522 405 522 388 c 0,92,93
 522 375 522 375 489.5 326.5 c 128,-1,94
 457 278 457 278 427 246 c 0,95,96
 408 224 408 224 388 224 c 0,97,98
 375 224 375 224 366 234.5 c 128,-1,99
 357 245 357 245 357 260 c 0,100,101
 357 264 357 264 359 274 c 0,102,103
 364 289 364 289 394 332.5 c 128,-1,104
 424 376 424 376 448 402 c 0,87,88
EndSplineSet
EndChar

StartChar: seven
Encoding: 55 55 17
Width: 678
Flags: W
LayerCount: 2
Fore
SplineSet
359 312 m 0,0,1
 359 323 359 323 343 323 c 0,2,3
 338 323 338 323 332 319 c 0,4,5
 326 313 326 313 326 309 c 0,6,7
 326 302 326 302 338 302 c 0,8,9
 359 302 359 302 359 312 c 0,0,1
186 417 m 0,10,11
 141 475 141 475 140 475 c 0,12,13
 130 475 130 475 130 406 c 0,14,15
 130 384 130 384 131 375 c 0,16,17
 139 296 139 296 200.5 243 c 128,-1,18
 262 190 262 190 340 190 c 0,19,20
 374 190 374 190 408 202 c 0,21,22
 470 223 470 223 509.5 277.5 c 128,-1,23
 549 332 549 332 549 399 c 0,24,25
 549 458 549 458 537 458 c 0,26,27
 528 458 528 458 505 433 c 0,28,29
 467 394 467 394 455 379 c 128,-1,30
 443 364 443 364 443 355 c 0,31,32
 443 348 443 348 451 335 c 0,33,34
 460 320 460 320 460 312 c 128,-1,35
 460 304 460 304 451 283 c 0,36,37
 439 254 439 254 409 237.5 c 128,-1,38
 379 221 379 221 341 221 c 0,39,40
 306 221 306 221 275 236 c 0,41,42
 245 250 245 250 235.5 262.5 c 128,-1,43
 226 275 226 275 226 303 c 2,44,-1
 226 316 l 2,45,46
 226 319 226 319 226.5 324.5 c 128,-1,47
 227 330 227 330 227 332 c 0,48,49
 227 352 227 352 220 366 c 128,-1,50
 213 380 213 380 186 417 c 0,10,11
439 589 m 0,51,52
 392 615 392 615 328 615 c 0,53,54
 301 615 301 615 280 609 c 0,55,56
 254 601 254 601 223 580.5 c 128,-1,57
 192 560 192 560 192 550 c 0,58,59
 192 544 192 544 287 411 c 0,60,61
 291 403 291 403 295.5 403.5 c 128,-1,62
 300 404 300 404 310 414 c 0,63,64
 324 426 324 426 339 426 c 0,65,66
 344 426 344 426 356 424 c 128,-1,67
 368 422 368 422 372 422 c 0,68,69
 384 422 384 422 397 433 c 128,-1,70
 410 444 410 444 441 479 c 0,71,72
 488 532 488 532 488 546 c 0,73,74
 488 556 488 556 477.5 564.5 c 128,-1,75
 467 573 467 573 439 589 c 0,51,52
250 678 m 0,76,77
 283 688 283 688 333 688 c 0,78,79
 400 688 400 688 442 672 c 0,80,81
 485 656 485 656 532 612.5 c 128,-1,82
 579 569 579 569 601 525 c 0,83,84
 628 471 628 471 628 406 c 0,85,86
 628 313 628 313 578 240 c 0,87,88
 536 180 536 180 473 146.5 c 128,-1,89
 410 113 410 113 340 113 c 0,90,91
 278 113 278 113 221 140 c 0,92,93
 121 186 121 186 75 283 c 0,94,95
 62 312 62 312 58 332.5 c 128,-1,96
 54 353 54 353 53 399 c 0,97,98
 53 445 53 445 57 466 c 128,-1,99
 61 487 61 487 75 518 c 0,100,101
 101 574 101 574 148.5 617.5 c 128,-1,102
 196 661 196 661 250 678 c 0,76,77
EndSplineSet
EndChar

StartChar: eight
Encoding: 56 56 18
Width: 674
Flags: W
LayerCount: 2
Fore
SplineSet
361 504 m 2,0,1
 340 513 340 513 331 513 c 0,2,3
 327 513 327 513 309 509 c 0,4,5
 298 506 298 506 298 499 c 0,6,7
 298 488 298 488 321 471 c 2,8,-1
 343 456 l 1,9,10
 363 476 363 476 384 494 c 1,11,-1
 361 504 l 2,0,1
438 589 m 0,12,13
 387 616 387 616 337 616 c 0,14,15
 252 616 252 616 188.5 553.5 c 128,-1,16
 125 491 125 491 125 406 c 0,17,18
 125 361 125 361 146 316 c 0,19,20
 191 220 191 220 274 201 c 1,21,-1
 295 195 l 1,22,-1
 295 391 l 1,23,-1
 247 429 l 2,24,25
 200 469 200 469 196 483 c 0,26,27
 195 486 195 486 195 492 c 0,28,29
 195 509 195 509 209.5 530 c 128,-1,30
 224 551 224 551 248 567 c 0,31,32
 282 589 282 589 329 589 c 0,33,34
 374 588 374 588 402 575 c 128,-1,35
 430 562 430 562 454 529 c 0,36,37
 477 497 477 497 477 478 c 0,38,39
 477 458 477 458 452 442 c 0,40,41
 420 420 420 420 401 400 c 2,42,-1
 374 376 l 1,43,-1
 374 287 l 2,44,45
 374 232 374 232 376.5 214.5 c 128,-1,46
 379 197 379 197 391 197 c 0,47,48
 401 197 401 197 443 221 c 0,49,50
 494 250 494 250 521 296.5 c 128,-1,51
 548 343 548 343 548 399 c 0,52,53
 548 436 548 436 536 473 c 0,54,55
 511 549 511 549 438 589 c 0,12,13
255 682 m 0,56,57
 277 689 277 689 320 689 c 0,58,59
 397 689 397 689 442 672 c 0,60,61
 488 655 488 655 530.5 614.5 c 128,-1,62
 573 574 573 574 598 524 c 0,63,64
 616 488 616 488 620 468.5 c 128,-1,65
 624 449 624 449 624 403 c 0,66,67
 624 361 624 361 620 339.5 c 128,-1,68
 616 318 616 318 602 288 c 0,69,70
 582 245 582 245 544.5 204 c 128,-1,71
 507 163 507 163 469 145 c 0,72,73
 414 116 414 116 339 116 c 0,74,75
 265 116 265 116 208 144 c 0,76,77
 170 163 170 163 131.5 203 c 128,-1,78
 93 243 93 243 74 283 c 0,79,80
 60 312 60 312 56.5 333 c 128,-1,81
 53 354 53 354 53 403 c 0,82,83
 53 454 53 454 56.5 474 c 128,-1,84
 60 494 60 494 76 525 c 0,85,86
 104 581 104 581 151.5 623 c 128,-1,87
 199 665 199 665 255 682 c 0,56,57
EndSplineSet
EndChar

StartChar: nine
Encoding: 57 57 19
Width: 674
Flags: W
LayerCount: 2
Fore
SplineSet
329 317 m 0,0,1
 326 324 326 324 233 324 c 2,2,-1
 142 324 l 1,3,-1
 162 290 l 2,4,5
 180 257 180 257 218 231 c 0,6,7
 241 216 241 216 279 202.5 c 128,-1,8
 317 189 317 189 337 189 c 0,9,10
 344 189 344 189 347 192 c 0,11,12
 348 193 348 193 348 202 c 0,13,14
 348 224 348 224 341.5 266.5 c 128,-1,15
 335 309 335 309 329 317 c 0,0,1
473 379 m 2,16,-1
 407 427 l 1,17,-1
 267 427 l 2,18,19
 220 427 220 427 194.5 426.5 c 128,-1,20
 169 426 169 426 153 424.5 c 128,-1,21
 137 423 137 423 132.5 421 c 128,-1,22
 128 419 128 419 128 415 c 0,23,24
 128 407 128 407 150.5 405 c 128,-1,25
 173 403 173 403 251 403 c 0,26,27
 333 403 333 403 355.5 401 c 128,-1,28
 378 399 378 399 388 389 c 0,29,30
 401 376 401 376 416 298 c 0,31,32
 431 221 431 221 439 221 c 0,33,34
 452 221 452 221 473 237.5 c 128,-1,35
 494 254 494 254 509 275 c 0,36,37
 533 310 533 310 533 320 c 0,38,39
 533 331 533 331 520.5 342.5 c 128,-1,40
 508 354 508 354 473 379 c 2,16,-1
434 595 m 0,41,42
 394 616 394 616 345 616 c 0,43,44
 278 616 278 616 220 579 c 0,45,46
 200 567 200 567 182 546 c 128,-1,47
 164 525 164 525 164 515 c 0,48,49
 164 512 164 512 165 511 c 0,50,51
 170 506 170 506 301 506 c 2,52,-1
 431 506 l 1,53,-1
 487 467 l 2,54,55
 532 434 532 434 541 434 c 0,56,57
 547 434 547 434 547 444 c 0,58,59
 547 462 547 462 529.5 497 c 128,-1,60
 512 532 512 532 491 553 c 0,61,62
 466 578 466 578 434 595 c 0,41,42
246 679 m 0,63,64
 273 688 273 688 325 688 c 0,65,66
 421 688 421 688 463 667 c 0,67,68
 551 623 551 623 597 537 c 0,69,70
 616 501 616 501 620 482 c 128,-1,71
 624 463 624 463 624 403 c 0,72,73
 624 348 624 348 620.5 328 c 128,-1,74
 617 308 617 308 602 280 c 0,75,76
 554 190 554 190 475 148 c 0,77,78
 439 129 439 129 420.5 125 c 128,-1,79
 402 121 402 121 342 121 c 0,80,81
 287 121 287 121 265.5 125 c 128,-1,82
 244 129 244 129 214 144 c 0,83,84
 178 162 178 162 139.5 200 c 128,-1,85
 101 238 101 238 82 274 c 0,86,87
 54 329 54 329 54 404 c 0,88,89
 54 478 54 478 82 533 c 0,90,91
 105 579 105 579 150.5 619.5 c 128,-1,92
 196 660 196 660 246 679 c 0,63,64
EndSplineSet
EndChar

StartChar: question
Encoding: 63 63 20
Width: 355
Flags: W
LayerCount: 2
Fore
SplineSet
222 666 m 0,0,1
 270 688 270 688 275 688 c 0,2,3
 284 688 284 688 291 674 c 128,-1,4
 298 660 298 660 298 643 c 0,5,6
 298 625 298 625 290.5 617 c 128,-1,7
 283 609 283 609 249 593 c 2,8,-1
 198 569 l 1,9,-1
 175 592 l 2,10,11
 157 610 157 610 157 617 c 0,12,13
 157 622 157 622 163 629 c 0,14,15
 174 642 174 642 222 666 c 0,0,1
91 547 m 0,16,17
 106 567 106 567 115 567 c 0,18,19
 122 567 122 567 142 544 c 2,20,-1
 162 520 l 1,21,-1
 146 486 l 2,22,23
 135 463 135 463 127.5 457 c 128,-1,24
 120 451 120 451 98 450 c 0,25,26
 95 450 95 450 90.5 449.5 c 128,-1,27
 86 449 86 449 84 449 c 0,28,29
 65 449 65 449 62 459 c 0,30,31
 61 461 61 461 61 468 c 0,32,33
 61 508 61 508 91 547 c 0,16,17
58 372 m 0,34,35
 68 384 68 384 92 384 c 0,36,37
 113 384 113 384 120 374 c 0,38,39
 128 362 128 362 142 327 c 0,40,41
 170 249 170 249 250 210 c 0,42,43
 281 194 281 194 287.5 186.5 c 128,-1,44
 294 179 294 179 294 156 c 0,45,46
 294 121 294 121 275 121 c 0,47,48
 261 121 261 121 224 138 c 0,49,50
 166 164 166 164 124 211.5 c 128,-1,51
 82 259 82 259 62 318 c 0,52,53
 53 347 53 347 53 357 c 0,54,55
 53 365 53 365 58 372 c 0,34,35
EndSplineSet
EndChar

StartChar: A
Encoding: 65 65 21
AltUni2: 000061.ffffffff.0
Width: 674
Flags: W
LayerCount: 2
Fore
SplineSet
335 350 m 2,0,-1
 279 350 l 2,1,2
 138 350 138 350 134 346 c 0,3,4
 133 345 133 345 133 342 c 0,5,6
 133 327 133 327 155 288.5 c 128,-1,7
 177 250 177 250 195 235 c 0,8,9
 254 186 254 186 332 186 c 2,10,-1
 349 186 l 2,11,12
 406 188 406 188 446 212 c 0,13,14
 477 232 477 232 506 269.5 c 128,-1,15
 535 307 535 307 535 328 c 0,16,17
 535 339 535 339 528.5 342.5 c 128,-1,18
 522 346 522 346 486.5 347.5 c 128,-1,19
 451 349 451 349 381 350 c 0,20,21
 352 350 352 350 335 350 c 2,0,-1
427 584 m 0,22,23
 386 606 386 606 338 606 c 0,24,25
 261 606 261 606 199 552 c 0,26,27
 174 529 174 529 151.5 494 c 128,-1,28
 129 459 129 459 129 442 c 0,29,30
 129 432 129 432 336 432 c 2,31,-1
 544 432 l 1,32,-1
 537 456 l 2,33,34
 513 540 513 540 427 584 c 0,22,23
231 661 m 0,35,36
 278 680 278 680 342 680 c 0,37,38
 392 680 392 680 426 668 c 0,39,40
 492 645 492 645 542.5 591.5 c 128,-1,41
 593 538 593 538 612 473 c 0,42,43
 623 436 623 436 623 392 c 0,44,45
 623 298 623 298 566.5 221.5 c 128,-1,46
 510 145 510 145 417 117 c 0,47,48
 375 105 375 105 334 105 c 0,49,50
 228 105 228 105 146 181 c 0,51,52
 99 225 99 225 77 269 c 128,-1,53
 55 313 55 313 51 371 c 0,54,55
 51 374 51 374 50.5 381 c 128,-1,56
 50 388 50 388 50 392 c 0,57,58
 50 484 50 484 97.5 555 c 128,-1,59
 145 626 145 626 231 661 c 0,35,36
EndSplineSet
EndChar

StartChar: B
Encoding: 66 66 22
AltUni2: 000062.ffffffff.0
Width: 670
Flags: W
LayerCount: 2
Fore
SplineSet
281 441 m 0,0,1
 266 445 266 445 195 447 c 2,2,-1
 170 447 l 2,3,4
 141 447 141 447 134 443.5 c 128,-1,5
 127 440 127 440 124 427 c 0,6,7
 121 416 121 416 121 400 c 0,8,9
 121 341 121 341 144 298 c 0,10,11
 163 259 163 259 201.5 228.5 c 128,-1,12
 240 198 240 198 285 187 c 0,13,14
 295 185 295 185 296 185 c 0,15,16
 302 185 302 185 303.5 194.5 c 128,-1,17
 305 204 305 204 305 239 c 2,18,-1
 305 296 l 1,19,-1
 265 296 l 2,20,21
 234 296 234 296 213.5 308 c 128,-1,22
 193 320 193 320 193 339 c 0,23,24
 193 355 193 355 217.5 369.5 c 128,-1,25
 242 384 242 384 271 384 c 0,26,27
 287 384 287 384 292.5 384.5 c 128,-1,28
 298 385 298 385 301 387.5 c 128,-1,29
 304 390 304 390 304 397 c 0,30,31
 304 398 304 398 303.5 402.5 c 128,-1,32
 303 407 303 407 303 410 c 0,33,34
 300 436 300 436 281 441 c 0,0,1
541 392 m 0,35,36
 541 451 541 451 533 465 c 0,37,38
 530 471 530 471 525 471 c 0,39,40
 518 471 518 471 491 441 c 0,41,42
 458 403 458 403 422 383 c 2,43,-1
 385 364 l 1,44,-1
 385 278 l 2,45,46
 385 192 385 192 393 192 c 0,47,48
 407 192 407 192 433.5 207 c 128,-1,49
 460 222 460 222 479 241 c 0,50,51
 514 275 514 275 527.5 308 c 128,-1,52
 541 341 541 341 541 392 c 0,35,36
391 596 m 0,53,54
 358 606 358 606 326 606 c 0,55,56
 271 606 271 606 207 564 c 0,57,58
 183 549 183 549 183 540 c 0,59,60
 183 529 183 529 238 529 c 0,61,62
 276 529 276 529 316 513 c 128,-1,63
 356 497 356 497 374 475 c 2,64,-1
 391 455 l 1,65,-1
 417 477 l 2,66,67
 446 504 446 504 455 527 c 0,68,69
 463 546 463 546 463 551 c 0,70,71
 463 558 463 558 449 570 c 0,72,73
 430 585 430 585 391 596 c 0,53,54
230 661 m 0,74,75
 272 679 272 679 315 679 c 0,76,77
 319 679 319 679 329 678.5 c 128,-1,78
 339 678 339 678 345 678 c 0,79,80
 413 675 413 675 451 657 c 0,81,82
 531 618 531 618 575.5 546.5 c 128,-1,83
 620 475 620 475 620 393 c 0,84,85
 620 275 620 275 535 190 c 0,86,87
 491 146 491 146 445 127.5 c 128,-1,88
 399 109 399 109 333 109 c 128,-1,89
 267 109 267 109 221 127.5 c 128,-1,90
 175 146 175 146 131 190 c 0,91,92
 90 231 90 231 72 272 c 128,-1,93
 54 313 54 313 51 373 c 0,94,95
 51 376 51 376 50.5 383 c 128,-1,96
 50 390 50 390 50 394 c 0,97,98
 50 584 50 584 230 661 c 0,74,75
EndSplineSet
EndChar

StartChar: C
Encoding: 67 67 23
AltUni2: 000063.ffffffff.0
Width: 670
Flags: W
LayerCount: 2
Fore
SplineSet
538 334 m 2,0,-1
 538 340 l 2,1,2
 538 348 538 348 527 350 c 128,-1,3
 516 352 516 352 472 352 c 0,4,5
 426 352 426 352 415.5 350.5 c 128,-1,6
 405 349 405 349 405 340 c 2,7,-1
 405 334 l 2,8,9
 406 321 406 321 416 318.5 c 128,-1,10
 426 316 426 316 472 316 c 128,-1,11
 518 316 518 316 527.5 318.5 c 128,-1,12
 537 321 537 321 538 334 c 2,0,-1
217 356 m 0,13,14
 198 390 198 390 164 451 c 2,15,-1
 142 490 l 1,16,-1
 132 448 l 2,17,18
 125 415 125 415 125 392 c 0,19,20
 125 300 125 300 195 238 c 0,21,22
 255 184 255 184 330 184 c 0,23,24
 413 184 413 184 457 221 c 2,25,-1
 480 239 l 1,26,-1
 414 240 l 2,27,28
 389 240 389 240 377 240.5 c 128,-1,29
 365 241 365 241 352.5 246 c 128,-1,30
 340 251 340 251 336 256.5 c 128,-1,31
 332 262 332 262 328.5 279.5 c 128,-1,32
 325 297 325 297 324.5 314 c 128,-1,33
 324 331 324 331 324 366 c 2,34,-1
 324 456 l 1,35,-1
 292 456 l 2,36,37
 260 456 260 456 260 452 c 0,38,39
 260 445 260 445 285 399 c 0,40,41
 306 354 306 354 306 331 c 2,42,-1
 306 326 l 2,43,44
 304 308 304 308 299.5 304 c 128,-1,45
 295 300 295 300 276 300 c 0,46,47
 256 300 256 300 247.5 308.5 c 128,-1,48
 239 317 239 317 217 356 c 0,13,14
398 597 m 0,49,50
 369 607 369 607 338 607 c 0,51,52
 278 607 278 607 217 569 c 0,53,54
 188 551 188 551 188 543 c 0,55,56
 188 536 188 536 280 536 c 0,57,58
 362 536 362 536 383 524.5 c 128,-1,59
 404 513 404 513 404 468 c 2,60,-1
 404 432 l 1,61,-1
 472 432 l 2,62,63
 511 432 511 432 525.5 435 c 128,-1,64
 540 438 540 438 540 449 c 128,-1,65
 540 460 540 460 517 500 c 0,66,67
 477 568 477 568 398 597 c 0,49,50
245 667 m 0,68,69
 278 679 278 679 327 679 c 0,70,71
 410 679 410 679 462 652 c 0,72,73
 508 629 508 629 548 586 c 128,-1,74
 588 543 588 543 604 498 c 0,75,76
 620 457 620 457 620 395 c 0,77,78
 620 318 620 318 597 270 c 0,79,80
 560 192 560 192 488.5 148.5 c 128,-1,81
 417 105 417 105 336 105 c 0,82,83
 234 105 234 105 154 170 c 0,84,85
 112 203 112 203 81 267 c 0,86,87
 61 307 61 307 55.5 326.5 c 128,-1,88
 50 346 50 346 50 378 c 2,89,-1
 50 391 l 2,90,91
 50 488 50 488 101.5 561 c 128,-1,92
 153 634 153 634 245 667 c 0,68,69
EndSplineSet
EndChar

StartChar: D
Encoding: 68 68 24
AltUni2: 000064.ffffffff.0
Width: 672
Flags: W
LayerCount: 2
Fore
SplineSet
291 430 m 0,0,1
 288 608 288 608 279 608 c 0,2,3
 242 607 242 607 191.5 549 c 128,-1,4
 141 491 141 491 129 437 c 0,5,6
 125 420 125 420 125 398 c 0,7,8
 125 344 125 344 153 293 c 128,-1,9
 181 242 181 242 228 213 c 0,10,11
 267 190 267 190 326 186 c 0,12,13
 337 185 337 185 356 185 c 0,14,15
 386 185 386 185 386 190 c 0,16,17
 386 197 386 197 417 206 c 0,18,19
 446 215 446 215 480.5 248 c 128,-1,20
 515 281 515 281 530 314 c 128,-1,21
 545 347 545 347 545 400 c 0,22,23
 545 452 545 452 530 485 c 0,24,25
 515 520 515 520 491 545 c 0,26,27
 474 565 474 565 437.5 586 c 128,-1,28
 401 607 401 607 385 607 c 0,29,30
 382 607 382 607 380 605 c 0,31,32
 374 600 374 600 370 422 c 0,33,34
 366 246 366 246 359 234 c 0,35,36
 352 224 352 224 334 224 c 0,37,38
 306 224 306 224 299.5 255.5 c 128,-1,39
 293 287 293 287 291 430 c 0,0,1
256 681 m 0,40,41
 273 686 273 686 331 686 c 2,42,-1
 346 686 l 2,43,44
 413 684 413 684 459 662 c 0,45,46
 503 640 503 640 540 603 c 128,-1,47
 577 566 577 566 598 522 c 0,48,49
 613 493 613 493 617 472 c 128,-1,50
 621 451 621 451 622 404 c 0,51,52
 622 358 622 358 618 337 c 128,-1,53
 614 316 614 316 600 286 c 0,54,55
 579 241 579 241 544 204 c 128,-1,56
 509 167 509 167 467 147 c 0,57,58
 420 122 420 122 417 117 c 0,59,60
 409 109 409 109 359 106 c 0,61,62
 350 105 350 105 333 105 c 0,63,64
 226 105 226 105 146 181 c 0,65,66
 97 226 97 226 76 270.5 c 128,-1,67
 55 315 55 315 51 380 c 0,68,69
 50 393 50 393 50 414 c 0,70,71
 50 453 50 453 68 494 c 0,72,73
 95 561 95 561 145.5 611.5 c 128,-1,74
 196 662 196 662 256 681 c 0,40,41
EndSplineSet
EndChar

StartChar: E
Encoding: 69 69 25
AltUni2: 000065.ffffffff.0
Width: 669
Flags: W
LayerCount: 2
Fore
SplineSet
407 284 m 0,0,1
 350 328 350 328 344 328 c 0,2,3
 337 328 337 328 295.5 272 c 128,-1,4
 254 216 254 216 254 208 c 0,5,6
 254 198 254 198 278 191 c 128,-1,7
 302 184 302 184 337 184 c 0,8,9
 368 184 368 184 415 202 c 128,-1,10
 462 220 462 220 462 232 c 0,11,12
 462 238 462 238 407 284 c 0,0,1
517 495 m 0,13,14
 499 528 499 528 492 528 c 128,-1,15
 485 528 485 528 442.5 469.5 c 128,-1,16
 400 411 400 411 400 402 c 0,17,18
 400 395 400 395 456 349.5 c 128,-1,19
 512 304 512 304 518 304 c 0,20,21
 526 304 526 304 533.5 335.5 c 128,-1,22
 541 367 541 367 541 400 c 0,23,24
 541 412 541 412 540 418 c 0,25,26
 537 459 537 459 517 495 c 0,13,14
396 546 m 0,27,28
 417 575 417 575 417 583 c 0,29,30
 417 584 417 584 416 584 c 0,31,32
 411 582 411 582 322 466 c 0,33,34
 268 393 268 393 200 306 c 0,35,36
 167 266 167 266 167 260 c 0,37,38
 167 256 167 256 176 256 c 0,39,40
 187 256 187 256 219 302 c 0,41,42
 282 390 282 390 310 428 c 0,43,44
 322 444 322 444 342 471.5 c 128,-1,45
 362 499 362 499 375.5 517.5 c 128,-1,46
 389 536 389 536 396 546 c 0,27,28
292 562 m 0,47,48
 319 599 319 599 319 604 c 0,49,50
 319 608 319 608 307 608 c 0,51,52
 288 608 288 608 236 582 c 0,53,54
 149 536 149 536 126 446 c 0,55,56
 120 422 120 422 120 396 c 0,57,58
 120 358 120 358 130 355 c 2,59,-1
 131 355 l 2,60,61
 137 355 137 355 161.5 387 c 128,-1,62
 186 419 186 419 292 562 c 0,47,48
200 652 m 0,63,64
 235 670 235 670 250.5 674.5 c 128,-1,65
 266 679 266 679 294 679 c 0,66,67
 299 679 299 679 313.5 678.5 c 128,-1,68
 328 678 328 678 338 678 c 0,69,70
 419 676 419 676 458 656 c 0,71,72
 529 621 529 621 573.5 548.5 c 128,-1,73
 618 476 618 476 618 397 c 0,74,75
 618 370 618 370 614 350 c 0,76,77
 585 202 585 202 464 142 c 0,78,79
 427 124 427 124 407 120 c 128,-1,80
 387 116 387 116 330 116 c 0,81,82
 278 116 278 116 256 119.5 c 128,-1,83
 234 123 234 123 205 137 c 0,84,85
 123 176 123 176 74 264 c 0,86,87
 57 296 57 296 53.5 315.5 c 128,-1,88
 50 335 50 335 50 396 c 0,89,90
 50 458 50 458 53.5 477.5 c 128,-1,91
 57 497 57 497 73 525 c 0,92,93
 101 576 101 576 127.5 603 c 128,-1,94
 154 630 154 630 200 652 c 0,63,64
EndSplineSet
EndChar

StartChar: F
Encoding: 70 70 26
AltUni2: 000066.ffffffff.0
Width: 663
Flags: W
LayerCount: 2
Fore
SplineSet
396 230 m 0,0,1
 378 261 378 261 365 261 c 128,-1,2
 352 261 352 261 334 230 c 0,3,4
 313 194 313 194 313 188 c 0,5,6
 313 185 313 185 333 185 c 0,7,8
 397 185 397 185 407 195 c 0,9,10
 408 196 408 196 408 199 c 0,11,12
 408 210 408 210 396 230 c 0,0,1
540 430 m 2,13,-1
 533 460 l 1,14,-1
 424 462 l 1,15,-1
 313 465 l 1,16,-1
 313 430 l 2,17,18
 313 405 313 405 319 397.5 c 128,-1,19
 325 390 325 390 357 373 c 0,20,21
 427 336 427 336 474 264 c 2,22,-1
 487 245 l 1,23,-1
 508 277 l 2,24,25
 543 332 543 332 543 401 c 0,26,27
 543 417 543 417 540 430 c 2,13,-1
437 576 m 2,28,29
 405 596 405 596 341 598 c 0,30,31
 335 598 335 598 326 598.5 c 128,-1,32
 317 599 317 599 313 599 c 0,33,34
 276 599 276 599 235 579 c 0,35,36
 184 554 184 554 153.5 502.5 c 128,-1,37
 123 451 123 451 123 392 c 0,38,39
 123 376 123 376 124 368 c 0,40,41
 133 291 133 291 193 237 c 0,42,43
 220 213 220 213 232 213 c 0,44,45
 241 213 241 213 241 227 c 0,46,47
 241 240 241 240 265 273 c 2,48,-1
 289 308 l 1,49,-1
 266 318 l 2,50,51
 240 330 240 330 236 337 c 0,52,53
 232 347 232 347 232 410 c 2,54,-1
 232 435 l 2,55,56
 235 525 235 525 246 536 c 0,57,58
 258 548 258 548 364 552 c 2,59,-1
 469 556 l 1,60,-1
 437 576 l 2,28,29
228 663 m 0,61,62
 267 679 267 679 329 679 c 0,63,64
 408 679 408 679 459 654 c 0,65,66
 496 635 496 635 534.5 597 c 128,-1,67
 573 559 573 559 595 519 c 0,68,69
 607 497 607 497 610 475.5 c 128,-1,70
 613 454 613 454 613 396 c 0,71,72
 613 337 613 337 609.5 315.5 c 128,-1,73
 606 294 606 294 593 268 c 0,74,75
 574 228 574 228 533.5 189 c 128,-1,76
 493 150 493 150 451 130 c 0,77,78
 422 116 422 116 400 112 c 128,-1,79
 378 108 378 108 333 108 c 0,80,81
 283 108 283 108 263.5 112 c 128,-1,82
 244 116 244 116 208 134 c 0,83,84
 159 158 159 158 120.5 199.5 c 128,-1,85
 82 241 82 241 64 288 c 0,86,87
 50 322 50 322 50 370 c 0,88,89
 50 375 50 375 50.5 387.5 c 128,-1,90
 51 400 51 400 51 408 c 0,91,92
 52 457 52 457 57 477.5 c 128,-1,93
 62 498 62 498 77 526 c 0,94,95
 100 567 100 567 144 607 c 128,-1,96
 188 647 188 647 228 663 c 0,61,62
EndSplineSet
EndChar

StartChar: G
Encoding: 71 71 27
AltUni2: 000067.ffffffff.0
Width: 668
Flags: W
LayerCount: 2
Fore
SplineSet
541 346 m 0,0,1
 541 356 541 356 439 356 c 2,2,-1
 337 356 l 1,3,-1
 328 316 l 2,4,5
 318 273 318 273 303 244 c 128,-1,6
 288 215 288 215 288 204 c 0,7,8
 288 195 288 195 297 192 c 128,-1,9
 306 189 306 189 330 189 c 0,10,11
 457 189 457 189 518 295 c 0,12,13
 541 334 541 334 541 346 c 0,0,1
198 493 m 0,14,15
 174 522 174 522 168 522 c 128,-1,16
 162 522 162 522 145 487 c 0,17,18
 128 451 128 451 128 395 c 0,19,20
 128 348 128 348 140 318 c 0,21,22
 152 290 152 290 172.5 263.5 c 128,-1,23
 193 237 193 237 203 237 c 0,24,25
 214 237 214 237 235 289.5 c 128,-1,26
 256 342 256 342 256 370 c 0,27,28
 256 419 256 419 198 493 c 0,14,15
396 598 m 0,29,30
 363 608 363 608 332 608 c 0,31,32
 308 608 308 608 291 604 c 128,-1,33
 274 600 274 600 253 591.5 c 128,-1,34
 232 583 232 583 232 580 c 0,35,36
 232 576 232 576 264 537 c 0,37,38
 295 496 295 496 312 465 c 2,39,-1
 327 435 l 1,40,-1
 434 435 l 2,41,42
 541 435 541 435 541 444 c 0,43,44
 541 458 541 458 525 488 c 0,45,46
 508 523 508 523 470.5 555.5 c 128,-1,47
 433 588 433 588 396 598 c 0,29,30
240 667 m 0,48,49
 277 680 277 680 328 680 c 2,50,-1
 333 680 l 2,51,52
 432 680 432 680 504.5 626.5 c 128,-1,53
 577 573 577 573 606 479 c 0,54,55
 619 439 619 439 619 395 c 0,56,57
 619 280 619 280 535.5 196 c 128,-1,58
 452 112 452 112 337 112 c 0,59,60
 302 112 302 112 266 121 c 0,61,62
 221 132 221 132 188.5 151.5 c 128,-1,63
 156 171 156 171 122 208 c 0,64,65
 86 247 86 247 70 286.5 c 128,-1,66
 54 326 54 326 51 383 c 0,67,68
 51 389 51 389 50.5 398.5 c 128,-1,69
 50 408 50 408 50 412 c 0,70,71
 50 453 50 453 65 493 c 0,72,73
 114 620 114 620 240 667 c 0,48,49
EndSplineSet
EndChar

StartChar: H
Encoding: 72 72 28
AltUni2: 000068.ffffffff.0
Width: 660
Flags: W
LayerCount: 2
Fore
SplineSet
203 290 m 0,0,1
 172 313 172 313 154 313 c 0,2,3
 146 313 146 313 146 306 c 0,4,5
 146 294 146 294 176 260.5 c 128,-1,6
 206 227 206 227 226 217 c 0,7,8
 248 206 248 206 252 206 c 0,9,10
 257 206 257 206 257 220 c 0,11,12
 257 233 257 233 241 253.5 c 128,-1,13
 225 274 225 274 203 290 c 0,0,1
515 489 m 0,14,15
 495 530 495 530 484 530 c 0,16,17
 478 530 478 530 420 486 c 128,-1,18
 362 442 362 442 362 435 c 128,-1,19
 362 428 362 428 425.5 352 c 128,-1,20
 489 276 489 276 496 276 c 0,21,22
 500 276 500 276 519 315 c 0,23,24
 536 355 536 355 536 398 c 0,25,26
 536 447 536 447 515 489 c 0,14,15
286 394 m 0,27,28
 170 530 170 530 165 530 c 128,-1,29
 160 530 160 530 147.5 507.5 c 128,-1,30
 135 485 135 485 128 463 c 0,31,32
 119 438 119 438 119 423 c 0,33,34
 119 397 119 397 159 391 c 0,35,36
 191 386 191 386 241.5 353.5 c 128,-1,37
 292 321 292 321 311 293 c 0,38,39
 328 269 328 269 334 231 c 0,40,41
 338 195 338 195 350 191 c 0,42,43
 352 190 352 190 358 190 c 0,44,45
 375 190 375 190 404.5 199 c 128,-1,46
 434 208 434 208 438 215 c 0,47,48
 442 224 442 224 422 240 c 0,49,50
 391 271 391 271 286 394 c 0,27,28
402 593 m 0,51,52
 378 606 378 606 317 606 c 0,53,54
 288 606 288 606 275 602 c 0,55,56
 239 593 239 593 239 581 c 0,57,58
 239 570 239 570 265 539 c 0,59,60
 300 498 300 498 304 498 c 0,61,62
 309 498 309 498 363 541 c 0,63,64
 409 578 409 578 409 586 c 0,65,66
 409 590 409 590 402 593 c 0,51,52
240 671 m 0,67,68
 267 679 267 679 316 679 c 0,69,70
 397 679 397 679 442 659 c 0,71,72
 484 640 484 640 526 598 c 128,-1,73
 568 556 568 556 587 513 c 0,74,75
 610 461 610 461 610 397 c 0,76,77
 610 340 610 340 592 292 c 0,78,79
 559 208 559 208 489 160 c 128,-1,80
 419 112 419 112 335 112 c 0,81,82
 268 112 268 112 205 143 c 0,83,84
 165 162 165 162 124.5 207.5 c 128,-1,85
 84 253 84 253 68 295 c 0,86,87
 50 343 50 343 50 406 c 0,88,89
 50 479 50 479 75 531 c 0,90,91
 100 580 100 580 145 618.5 c 128,-1,92
 190 657 190 657 240 671 c 0,67,68
EndSplineSet
EndChar

StartChar: I
Encoding: 73 73 29
AltUni2: 000069.ffffffff.0
Width: 667
Flags: W
LayerCount: 2
Fore
SplineSet
430 579 m 0,0,1
 385 599 385 599 359 603 c 0,2,3
 345 605 345 605 335 605 c 0,4,5
 272 605 272 605 226 576 c 2,6,-1
 196 558 l 1,7,-1
 303 554 l 2,8,9
 370 552 370 552 394.5 548.5 c 128,-1,10
 419 545 419 545 432 535 c 0,11,12
 479 504 479 504 479 447 c 0,13,14
 479 411 479 411 455 387 c 0,15,16
 433 365 433 365 419 365 c 0,17,18
 408 365 408 365 394 379 c 0,19,20
 384 390 384 390 384 399 c 128,-1,21
 384 408 384 408 390 424 c 128,-1,22
 396 440 396 440 396 450 c 0,23,24
 396 467 396 467 370 471 c 128,-1,25
 344 475 344 475 259 475 c 2,26,-1
 137 475 l 1,27,-1
 128 441 l 2,28,29
 123 424 123 424 123 399 c 0,30,31
 123 338 123 338 160 281 c 128,-1,32
 197 224 197 224 253 201 c 0,33,34
 286 189 286 189 341 189 c 0,35,36
 381 189 381 189 403 197 c 2,37,-1
 425 206 l 1,38,-1
 340 291 l 2,39,40
 292 339 292 339 273 363.5 c 128,-1,41
 254 388 254 388 254 403 c 0,42,43
 254 414 254 414 265 425 c 0,44,45
 275 435 275 435 285 435 c 0,46,47
 299 435 299 435 323 416 c 128,-1,48
 347 397 347 397 396 348 c 0,49,50
 484 260 484 260 490 260 c 0,51,52
 503 260 503 260 519.5 299 c 128,-1,53
 536 338 536 338 539 375 c 0,54,55
 540 383 540 383 540 399 c 0,56,57
 540 523 540 523 430 579 c 0,0,1
242 666 m 0,58,59
 284 680 284 680 331 680 c 0,60,61
 420 680 420 680 481 642 c 0,62,63
 515 621 515 621 551.5 577 c 128,-1,64
 588 533 588 533 601 498 c 0,65,66
 618 452 618 452 618 398 c 0,67,68
 618 330 618 330 594 279 c 0,69,70
 575 236 575 236 537 197.5 c 128,-1,71
 499 159 499 159 454 136 c 0,72,73
 424 121 424 121 404 117 c 128,-1,74
 384 113 384 113 335 113 c 0,75,76
 285 113 285 113 264.5 117 c 128,-1,77
 244 121 244 121 214 136 c 0,78,79
 138 173 138 173 96 236.5 c 128,-1,80
 54 300 54 300 51 383 c 0,81,82
 51 389 51 389 50.5 398 c 128,-1,83
 50 407 50 407 50 411 c 0,84,85
 50 453 50 453 64 492 c 0,86,87
 114 622 114 622 242 666 c 0,58,59
EndSplineSet
EndChar

StartChar: J
Encoding: 74 74 30
AltUni2: 00006a.ffffffff.0
Width: 664
Flags: W
LayerCount: 2
Fore
SplineSet
395 372 m 0,0,1
 331 498 331 498 330 498 c 0,2,3
 328 498 328 498 282.5 360 c 128,-1,4
 237 222 237 222 237 215 c 0,5,6
 237 204 237 204 268 195 c 128,-1,7
 299 186 299 186 337 186 c 0,8,9
 377 186 377 186 418.5 201.5 c 128,-1,10
 460 217 460 217 460 233 c 0,11,12
 460 246 460 246 395 372 c 0,0,1
256 533 m 0,13,14
 269 573 269 573 269 588 c 0,15,16
 269 594 269 594 266 594 c 0,17,18
 250 594 250 594 212.5 565 c 128,-1,19
 175 536 175 536 158 510 c 0,20,21
 123 454 123 454 123 396 c 0,22,23
 123 346 123 346 149 294 c 2,24,-1
 164 264 l 1,25,-1
 172 284 l 1,26,27
 226 434 226 434 256 533 c 0,13,14
437 577 m 0,28,29
 391 600 391 600 376 600 c 0,30,31
 372 600 372 600 372 598 c 0,32,33
 372 593 372 593 445 449 c 0,34,35
 512 317 512 317 523 317 c 0,36,37
 525 317 525 317 529 321 c 0,38,39
 541 338 541 338 541 387 c 0,40,41
 541 443 541 443 526 479 c 0,42,43
 515 507 515 507 489 535.5 c 128,-1,44
 463 564 463 564 437 577 c 0,28,29
250 667 m 0,45,46
 289 680 289 680 333 680 c 0,47,48
 415 680 415 680 486.5 635.5 c 128,-1,49
 558 591 558 591 594 514 c 0,50,51
 607 486 607 486 610.5 464.5 c 128,-1,52
 614 443 614 443 614 395 c 0,53,54
 614 346 614 346 610.5 325 c 128,-1,55
 607 304 607 304 593 275 c 0,56,57
 549 183 549 183 455 137 c 0,58,59
 426 122 426 122 408 118 c 128,-1,60
 390 114 390 114 353 114 c 2,61,-1
 333 114 l 2,62,63
 264 115 264 115 224.5 130 c 128,-1,64
 185 145 185 145 139 189 c 0,65,66
 50 272 50 272 50 394 c 0,67,68
 50 485 50 485 103.5 562 c 128,-1,69
 157 639 157 639 250 667 c 0,45,46
306 357 m 0,70,71
 318 370 318 370 337 370 c 0,72,73
 365 370 365 370 379 347 c 0,74,75
 385 335 385 335 385 323 c 0,76,77
 385 305 385 305 373.5 292 c 128,-1,78
 362 279 362 279 344 278 c 2,79,-1
 338 278 l 2,80,81
 318 278 318 278 305 291 c 128,-1,82
 292 304 292 304 292 323 c 128,-1,83
 292 342 292 342 306 357 c 0,70,71
EndSplineSet
EndChar

StartChar: K
Encoding: 75 75 31
AltUni2: 00006b.ffffffff.0
Width: 661
Flags: W
LayerCount: 2
Fore
SplineSet
532 465 m 0,0,1
 518 508 518 508 501 527 c 2,2,-1
 483 548 l 1,3,-1
 420 470 l 2,4,5
 383 423 383 423 364.5 405.5 c 128,-1,6
 346 388 346 388 330 388 c 0,7,8
 315 388 315 388 297.5 403 c 128,-1,9
 280 418 280 418 241 460 c 0,10,11
 180 525 180 525 165 525 c 0,12,13
 151 525 151 525 136 477 c 0,14,15
 124 441 124 441 124 405 c 0,16,17
 124 341 124 341 160 287 c 128,-1,18
 196 233 196 233 260 206 c 0,19,20
 278 197 278 197 332 197 c 0,21,22
 402 197 402 197 457.5 237.5 c 128,-1,23
 513 278 513 278 532 343 c 0,24,25
 543 377 543 377 543 404 c 0,26,27
 543 429 543 429 532 465 c 0,0,1
401 603 m 0,28,29
 374 613 374 613 333 613 c 0,30,31
 295 613 295 613 272 605 c 0,32,33
 234 594 234 594 234 587 c 0,34,35
 236 582 236 582 281 531 c 2,36,-1
 327 480 l 1,37,-1
 372 539 l 2,38,39
 410 587 410 587 410 595 c 0,40,41
 410 599 410 599 401 603 c 0,28,29
232 672 m 0,42,43
 277 688 277 688 330 688 c 0,44,45
 398 688 398 688 458 659 c 0,46,47
 549 615 549 615 593 524 c 0,48,49
 605 500 605 500 608 478.5 c 128,-1,50
 611 457 611 457 611 403 c 0,51,52
 611 348 611 348 608 327.5 c 128,-1,53
 605 307 605 307 592 284 c 0,54,55
 528 165 528 165 405 129 c 0,56,57
 371 119 371 119 332 119 c 0,58,59
 229 119 229 119 147.5 186.5 c 128,-1,60
 66 254 66 254 53 355 c 0,61,62
 50 378 50 378 50 402 c 0,63,64
 50 481 50 481 78 537 c 0,65,66
 98 577 98 577 143.5 616.5 c 128,-1,67
 189 656 189 656 232 672 c 0,42,43
204 322 m 0,68,69
 214 332 214 332 341 332 c 128,-1,70
 468 332 468 332 478 322 c 128,-1,71
 488 312 488 312 488 297 c 0,72,73
 488 276 488 276 471 265 c 0,74,75
 451 251 451 251 342 251 c 0,76,77
 226 251 226 251 209 266 c 0,78,79
 195 278 195 278 195 298 c 0,80,81
 195 313 195 313 204 322 c 0,68,69
EndSplineSet
EndChar

StartChar: L
Encoding: 76 76 32
AltUni2: 00006c.ffffffff.0
Width: 666
Flags: W
LayerCount: 2
Fore
SplineSet
266 488 m 0,0,1
 214 549 214 549 204 552 c 2,2,-1
 203 552 l 2,3,4
 194 552 194 552 177 533.5 c 128,-1,5
 160 515 160 515 148 490 c 0,6,7
 129 452 129 452 129 395 c 0,8,9
 129 356 129 356 140 326 c 0,10,11
 162 270 162 270 209 233.5 c 128,-1,12
 256 197 256 197 314 191 c 0,13,14
 321 190 321 190 334 190 c 0,15,16
 421 190 421 190 484 252.5 c 128,-1,17
 547 315 547 315 547 401 c 0,18,19
 547 411 547 411 545 429 c 0,20,21
 540 457 540 457 516.5 502.5 c 128,-1,22
 493 548 493 548 480 552 c 1,23,-1
 479 552 l 2,24,25
 468 552 468 552 425 487 c 0,26,27
 378 418 378 418 366 415 c 0,28,29
 360 413 360 413 356 413 c 0,30,31
 330 413 330 413 266 488 c 0,0,1
389 602 m 0,32,33
 379 609 379 609 337 609 c 0,34,35
 298 609 298 609 289 603 c 0,36,37
 287 602 287 602 287 598 c 0,38,39
 287 585 287 585 314 554 c 128,-1,40
 341 523 341 523 347 523 c 0,41,42
 356 523 356 523 377 560 c 0,43,44
 393 588 393 588 393 595 c 0,45,46
 393 599 393 599 389 602 c 0,32,33
280 680 m 0,47,48
 314 687 314 687 338 687 c 0,49,50
 360 687 360 687 399 678 c 0,51,52
 485 659 485 659 548 590 c 0,53,54
 589 545 589 545 602.5 507 c 128,-1,55
 616 469 616 469 616 399 c 0,56,57
 616 345 616 345 612.5 325 c 128,-1,58
 609 305 609 305 594 275 c 0,59,60
 576 238 576 238 538.5 200 c 128,-1,61
 501 162 501 162 465 143 c 0,62,63
 406 113 406 113 340 113 c 0,64,65
 220 113 220 113 135 198 c 0,66,67
 104 229 104 229 87.5 257 c 128,-1,68
 71 285 71 285 60 328 c 0,69,70
 50 364 50 364 50 403 c 0,71,72
 50 518 50 518 135 601 c 0,73,74
 196 664 196 664 280 680 c 0,47,48
EndSplineSet
EndChar

StartChar: M
Encoding: 77 77 33
AltUni2: 00006d.ffffffff.0
Width: 668
Flags: W
LayerCount: 2
Fore
SplineSet
285 374 m 2,0,-1
 285 467 l 1,1,-1
 211 467 l 2,2,3
 136 467 136 467 132 461 c 0,4,5
 126 455 126 455 126 426 c 0,6,7
 126 377 126 377 138 339 c 0,8,9
 159 277 159 277 212 240.5 c 128,-1,10
 265 204 265 204 334 204 c 0,11,12
 385 204 385 204 408 213 c 0,13,14
 429 220 429 220 460 241 c 128,-1,15
 491 262 491 262 491 268 c 0,16,17
 491 269 491 269 487 269 c 128,-1,18
 483 269 483 269 476.5 267.5 c 128,-1,19
 470 266 470 266 462 263 c 0,20,21
 436 254 436 254 371 252 c 0,22,23
 308 252 308 252 296.5 268.5 c 128,-1,24
 285 285 285 285 285 374 c 2,0,-1
424 598 m 0,25,26
 381 617 381 617 328 617 c 0,27,28
 290 617 290 617 259 606 c 0,29,30
 235 597 235 597 208.5 578.5 c 128,-1,31
 182 560 182 560 182 552 c 0,32,33
 182 546 182 546 259 546 c 0,34,35
 291 546 291 546 304 546 c 128,-1,36
 317 546 317 546 332.5 540.5 c 128,-1,37
 348 535 348 535 351.5 531 c 128,-1,38
 355 527 355 527 359.5 508.5 c 128,-1,39
 364 490 364 490 364 475.5 c 128,-1,40
 364 461 364 461 364 423 c 2,41,-1
 364 329 l 1,42,-1
 399 333 l 2,43,44
 454 340 454 340 494.5 378.5 c 128,-1,45
 535 417 535 417 535 460 c 0,46,47
 535 471 535 471 532 482 c 0,48,49
 522 514 522 514 490 548 c 128,-1,50
 458 582 458 582 424 598 c 0,25,26
255 686 m 0,51,52
 283 695 283 695 325 695 c 0,53,54
 402 695 402 695 451 671 c 0,55,56
 495 651 495 651 535 610.5 c 128,-1,57
 575 570 575 570 597 524 c 0,58,59
 617 482 617 482 617 443 c 0,60,61
 617 418 617 418 616 401 c 0,62,63
 614 356 614 356 610 334 c 128,-1,64
 606 312 606 312 594 289 c 0,65,66
 551 203 551 203 466 156 c 0,67,68
 430 137 430 137 411 133 c 128,-1,69
 392 129 392 129 336 129 c 0,70,71
 282 129 282 129 262 132.5 c 128,-1,72
 242 136 242 136 211 152 c 0,73,74
 169 174 169 174 131 213.5 c 128,-1,75
 93 253 93 253 72 298 c 0,76,77
 50 348 50 348 50 410 c 0,78,79
 50 473 50 473 72 523 c 0,80,81
 127 644 127 644 255 686 c 0,51,52
EndSplineSet
EndChar

StartChar: N
Encoding: 78 78 34
AltUni2: 00006e.ffffffff.0
Width: 668
Flags: W
LayerCount: 2
Fore
SplineSet
440 225 m 0,0,1
 445 228 445 228 445 230 c 0,2,3
 445 236 445 236 333 236 c 2,4,-1
 210 235 l 1,5,-1
 249 216 l 2,6,7
 287 197 287 197 339 197 c 0,8,9
 403 197 403 197 440 225 c 0,0,1
412 329 m 0,10,11
 375 345 375 345 320 345 c 0,12,13
 282 345 282 345 258 336 c 0,14,15
 223 323 223 323 223 320 c 0,16,17
 223 316 223 316 330 316 c 0,18,19
 426 317 426 317 426 321 c 0,20,21
 426 323 426 323 412 329 c 0,10,11
442 585 m 0,22,23
 400 609 400 609 389 609 c 0,24,25
 377 609 377 609 374.5 590.5 c 128,-1,26
 372 572 372 572 372 514 c 0,27,28
 372 455 372 455 374.5 437 c 128,-1,29
 377 419 377 419 384 419 c 0,30,31
 403 419 403 419 441.5 403 c 128,-1,32
 480 387 480 387 501 371 c 0,33,34
 529 348 529 348 534 348 c 0,35,36
 544 348 544 348 544 397 c 0,37,38
 544 423 544 423 539 446 c 0,39,40
 519 540 519 540 442 585 c 0,22,23
293 519 m 1,41,-1
 293 529 l 2,42,43
 293 577 293 577 290.5 592.5 c 128,-1,44
 288 608 288 608 278 608 c 0,45,46
 270 608 270 608 240 593 c 0,47,48
 189 568 189 568 158.5 518.5 c 128,-1,49
 128 469 128 469 128 413 c 2,50,-1
 128 403 l 1,51,-1
 130 356 l 1,52,-1
 165 379 l 2,53,54
 193 398 193 398 246 415 c 2,55,-1
 293 428 l 1,56,-1
 293 519 l 1,41,-1
277 686 m 0,57,58
 305 693 305 693 337 693 c 0,59,60
 446 693 446 693 535 606 c 0,61,62
 581 560 581 560 599.5 519 c 128,-1,63
 618 478 618 478 618 418 c 0,64,65
 618 414 618 414 617.5 405 c 128,-1,66
 617 396 617 396 617 391 c 0,67,68
 614 329 614 329 599 292.5 c 128,-1,69
 584 256 584 256 541 210 c 0,70,71
 456 120 456 120 336 120 c 0,72,73
 250 120 250 120 179 168 c 0,74,75
 117 210 117 210 83.5 273.5 c 128,-1,76
 50 337 50 337 50 406 c 0,77,78
 50 526 50 526 140 611 c 0,79,80
 176 644 176 644 205.5 660 c 128,-1,81
 235 676 235 676 277 686 c 0,57,58
EndSplineSet
EndChar

StartChar: O
Encoding: 79 79 35
AltUni2: 00006f.ffffffff.0
Width: 671
Flags: W
LayerCount: 2
Fore
SplineSet
505 281 m 0,0,1
 501 288 501 288 346 288 c 0,2,3
 167 288 167 288 162 280 c 1,4,-1
 162 279 l 2,5,6
 161 278 161 278 161 277 c 0,7,8
 161 266 161 266 189 241 c 128,-1,9
 217 216 217 216 244 203 c 0,10,11
 276 188 276 188 330 188 c 0,12,13
 392 188 392 188 427 206 c 0,14,15
 454 221 454 221 480 244.5 c 128,-1,16
 506 268 506 268 506 278 c 2,17,-1
 506 279 l 2,18,19
 505 280 505 280 505 281 c 0,0,1
542 360 m 1,20,-1
 542 424 l 1,21,-1
 126 424 l 1,22,-1
 126 360 l 1,23,-1
 542 360 l 1,20,-1
428 586 m 0,24,25
 388 606 388 606 326 606 c 0,26,27
 293 606 293 606 269 598 c 0,28,29
 226 582 226 582 192 554.5 c 128,-1,30
 158 527 158 527 158 510 c 0,31,32
 158 504 158 504 334 504 c 128,-1,33
 510 504 510 504 510 511 c 0,34,35
 510 521 510 521 482 546.5 c 128,-1,36
 454 572 454 572 428 586 c 0,24,25
262 676 m 0,37,38
 296 686 296 686 333 686 c 0,39,40
 448 686 448 686 534.5 600 c 128,-1,41
 621 514 621 514 621 395 c 0,42,43
 621 380 621 380 620 373 c 0,44,45
 612 280 612 280 552 209.5 c 128,-1,46
 492 139 492 139 399 115 c 0,47,48
 370 107 370 107 333 107 c 0,49,50
 255 107 255 107 186 149.5 c 128,-1,51
 117 192 117 192 77 266 c 0,52,53
 58 302 58 302 54 320.5 c 128,-1,54
 50 339 50 339 50 396 c 0,55,56
 50 449 50 449 53 469 c 128,-1,57
 56 489 56 489 69 512 c 0,58,59
 136 641 136 641 262 676 c 0,37,38
EndSplineSet
EndChar

StartChar: P
Encoding: 80 80 36
AltUni2: 000070.ffffffff.0
Width: 670
Flags: W
LayerCount: 2
Fore
SplineSet
386 300 m 1,0,-1
 386 348 l 1,1,-1
 256 350 l 1,2,-1
 206 350 l 2,3,4
 126 350 126 350 126 345 c 0,5,6
 126 334 126 334 136 316 c 2,7,-1
 144 295 l 1,8,-1
 265 298 l 1,9,-1
 386 300 l 1,0,-1
230 541 m 0,10,11
 230 576 230 576 220 576 c 0,12,13
 209 576 209 576 177.5 540.5 c 128,-1,14
 146 505 146 505 137 483 c 0,15,16
 126 456 126 456 126 450 c 0,17,18
 126 438 126 438 147.5 435 c 128,-1,19
 169 432 169 432 239 432 c 2,20,-1
 254 432 l 2,21,22
 336 432 336 432 359 434.5 c 128,-1,23
 382 437 382 437 382 445 c 0,24,25
 382 456 382 456 356.5 467 c 128,-1,26
 331 478 331 478 290 484 c 0,27,28
 251 489 251 489 240.5 499 c 128,-1,29
 230 509 230 509 230 541 c 0,10,11
427 586 m 0,30,31
 396 602 396 602 352 606 c 2,32,-1
 308 610 l 1,33,-1
 312 588 l 2,34,35
 314 573 314 573 322.5 566 c 128,-1,36
 331 559 331 559 364 549 c 0,37,38
 427 528 427 528 448 494.5 c 128,-1,39
 469 461 469 461 469 379 c 0,40,41
 469 353 469 353 468 339 c 0,42,43
 467 313 467 313 467.5 304.5 c 128,-1,44
 468 296 468 296 465.5 278.5 c 128,-1,45
 463 261 463 261 463.5 257 c 128,-1,46
 464 253 464 253 457 242 c 128,-1,47
 450 231 450 231 449 230 c 128,-1,48
 448 229 448 229 435.5 223.5 c 128,-1,49
 423 218 423 218 419 218.5 c 128,-1,50
 415 219 415 219 395 217 c 128,-1,51
 375 215 375 215 365.5 215 c 128,-1,52
 356 215 356 215 327 215 c 0,53,54
 231 214 231 214 231 211 c 0,55,56
 231 209 231 209 246 202 c 0,57,58
 277 188 277 188 329 188 c 0,59,60
 393 188 393 188 426 206 c 0,61,62
 482 236 482 236 512 288 c 128,-1,63
 542 340 542 340 542 398 c 128,-1,64
 542 456 542 456 512.5 507 c 128,-1,65
 483 558 483 558 427 586 c 0,30,31
282 680 m 0,66,67
 314 684 314 684 329 684 c 0,68,69
 430 684 430 684 508.5 623 c 128,-1,70
 587 562 587 562 612 461 c 0,71,72
 620 426 620 426 620 396 c 0,73,74
 620 281 620 281 536 195 c 0,75,76
 472 133 472 133 380 112 c 0,77,78
 353 107 353 107 332 107 c 0,79,80
 253 107 253 107 180.5 152 c 128,-1,81
 108 197 108 197 72 270 c 0,82,83
 57 300 57 300 53.5 321 c 128,-1,84
 50 342 50 342 50 396 c 128,-1,85
 50 450 50 450 53.5 470.5 c 128,-1,86
 57 491 57 491 72 521 c 0,87,88
 101 581 101 581 160.5 626 c 128,-1,89
 220 671 220 671 282 680 c 0,66,67
EndSplineSet
EndChar

StartChar: Q
Encoding: 81 81 37
AltUni2: 000071.ffffffff.0
Width: 669
Flags: W
LayerCount: 2
Fore
SplineSet
322 482 m 2,0,-1
 322 512 l 1,1,-1
 154 512 l 1,2,-1
 140 482 l 2,3,4
 126 452 126 452 126 370 c 0,5,6
 126 329 126 329 132 323 c 1,7,-1
 133 323 l 2,8,9
 143 323 143 323 171 354 c 0,10,11
 203 392 203 392 263 421 c 0,12,13
 306 443 306 443 314 451 c 128,-1,14
 322 459 322 459 322 482 c 2,0,-1
424 584 m 0,15,16
 376 605 376 605 323 605 c 0,17,18
 299 605 299 605 286 601 c 0,19,20
 276 598 276 598 276 596 c 128,-1,21
 276 594 276 594 317 593 c 0,22,23
 343 592 343 592 353 592 c 128,-1,24
 363 592 363 592 376 587.5 c 128,-1,25
 389 583 389 583 391.5 579.5 c 128,-1,26
 394 576 394 576 398 561 c 128,-1,27
 402 546 402 546 402 533 c 128,-1,28
 402 520 402 520 402 489 c 2,29,-1
 402 482 l 2,30,31
 402 405 402 405 395.5 386.5 c 128,-1,32
 389 368 389 368 361 368 c 0,33,34
 314 368 314 368 258 326 c 128,-1,35
 202 284 202 284 202 248 c 0,36,37
 202 233 202 233 208.5 225 c 128,-1,38
 215 217 215 217 237 206 c 0,39,40
 271 187 271 187 333 187 c 0,41,42
 396 187 396 187 431 206 c 0,43,44
 484 234 484 234 514 285 c 128,-1,45
 544 336 544 336 544 395 c 0,46,47
 544 446 544 446 520 494 c 0,48,49
 501 530 501 530 481 548.5 c 128,-1,50
 461 567 461 567 424 584 c 0,15,16
229 663 m 0,51,52
 274 680 274 680 334 680 c 0,53,54
 393 680 393 680 438 663 c 0,55,56
 494 643 494 643 544.5 589 c 128,-1,57
 595 535 595 535 611 478 c 0,58,59
 619 448 619 448 619 386 c 0,60,61
 619 252 619 252 503 163 c 0,62,63
 474 140 474 140 423 122 c 128,-1,64
 372 104 372 104 336 104 c 0,65,66
 247 104 247 104 168.5 160.5 c 128,-1,67
 90 217 90 217 62 302 c 0,68,69
 49 340 49 340 49 390 c 0,70,71
 49 471 49 471 78 526 c 0,72,73
 101 567 101 567 145 607 c 128,-1,74
 189 647 189 647 229 663 c 0,51,52
299 315 m 0,75,76
 316 336 316 336 341 336 c 0,77,78
 354 336 354 336 370 328 c 0,79,80
 400 312 400 312 400 278 c 0,81,82
 400 243 400 243 370 228 c 0,83,84
 348 217 348 217 336 217 c 0,85,86
 320 217 320 217 302 236 c 0,87,88
 283 255 283 255 283 276 c 0,89,90
 283 296 283 296 299 315 c 0,75,76
EndSplineSet
EndChar

StartChar: R
Encoding: 82 82 38
AltUni2: 000072.ffffffff.0
Width: 666
Flags: W
LayerCount: 2
Fore
SplineSet
460 370 m 0,0,1
 429 386 429 386 362 389 c 0,2,3
 356 389 356 389 345.5 389.5 c 128,-1,4
 335 390 335 390 331 390 c 0,5,6
 292 390 292 390 268 383 c 128,-1,7
 244 376 244 376 211 357 c 0,8,9
 159 326 159 326 159 300 c 0,10,11
 159 280 159 280 190 249 c 0,12,13
 249 192 249 192 337 192 c 0,14,15
 433 192 433 192 492 259 c 0,16,17
 518 289 518 289 518 297 c 0,18,19
 518 313 518 313 500.5 335.5 c 128,-1,20
 483 358 483 358 460 370 c 0,0,1
373 607 m 0,21,22
 341 614 341 614 328 614 c 128,-1,23
 315 614 315 614 294 610 c 0,24,25
 244 602 244 602 200 564 c 128,-1,26
 156 526 156 526 137 474 c 0,27,28
 126 444 126 444 126 414 c 0,29,30
 126 400 126 400 130 400 c 0,31,32
 137 400 137 400 168 424 c 0,33,34
 234 471 234 471 344 471 c 0,35,36
 448 471 448 471 513 428 c 0,37,38
 534 414 534 414 538 418 c 0,39,40
 539 419 539 419 539 423 c 0,41,42
 539 438 539 438 525 474.5 c 128,-1,43
 511 511 511 511 498 528 c 0,44,45
 477 557 477 557 443 578.5 c 128,-1,46
 409 600 409 600 373 607 c 0,21,22
223 671 m 0,47,48
 264 687 264 687 322 687 c 0,49,50
 397 687 397 687 448 662 c 0,51,52
 597 592 597 592 614 419 c 0,53,54
 616 389 616 389 616 376 c 0,55,56
 616 319 616 319 594.5 276 c 128,-1,57
 573 233 573 233 522 185 c 0,58,59
 443 113 443 113 337 113 c 0,60,61
 257 113 257 113 186 157 c 128,-1,62
 115 201 115 201 76 279 c 0,63,64
 59 313 59 313 54.5 333.5 c 128,-1,65
 50 354 50 354 50 400 c 0,66,67
 50 444 50 444 54.5 465 c 128,-1,68
 59 486 59 486 75 520 c 0,69,70
 100 572 100 572 140.5 613 c 128,-1,71
 181 654 181 654 223 671 c 0,47,48
EndSplineSet
EndChar

StartChar: S
Encoding: 83 83 39
AltUni2: 000073.ffffffff.0
Width: 676
Flags: W
LayerCount: 2
Fore
SplineSet
418 585 m 0,0,1
 384 600 384 600 342 600 c 0,2,3
 290 600 290 600 242 578.5 c 128,-1,4
 194 557 194 557 169 520 c 0,5,6
 125 456 125 456 125 394 c 0,7,8
 125 349 125 349 150 297 c 0,9,10
 206 184 206 184 337 184 c 0,11,12
 462 184 462 184 518 286 c 0,13,14
 546 338 546 338 546 396 c 0,15,16
 546 481 546 481 491 541 c 0,17,18
 461 573 461 573 456 573 c 2,19,-1
 455 573 l 1,20,-1
 453 573 l 2,21,22
 440 573 440 573 418 585 c 0,0,1
266 672 m 0,23,24
 286 677 286 677 335 677 c 0,25,26
 357 677 357 677 367 676 c 0,27,28
 414 675 414 675 433 669.5 c 128,-1,29
 452 664 452 664 482 646 c 0,30,31
 548 607 548 607 587 539 c 128,-1,32
 626 471 626 471 626 397 c 0,33,34
 626 387 626 387 624 365 c 0,35,36
 614 291 614 291 566 222.5 c 128,-1,37
 518 154 518 154 454 126 c 0,38,39
 408 105 408 105 335 105 c 0,40,41
 276 105 276 105 235 120 c 0,42,43
 193 136 193 136 149 174.5 c 128,-1,44
 105 213 105 213 82 255 c 0,45,46
 50 314 50 314 50 390 c 0,47,48
 50 462 50 462 78 519 c 0,49,50
 103 571 103 571 156.5 614.5 c 128,-1,51
 210 658 210 658 266 672 c 0,23,24
214 491 m 128,-1,53
 231 511 231 511 245 511 c 0,54,55
 258 511 258 511 280 495 c 0,56,57
 300 479 300 479 300 455 c 0,58,59
 300 436 300 436 287 422 c 128,-1,60
 274 408 274 408 252 408 c 0,61,62
 235 408 235 408 216 426 c 128,-1,63
 197 444 197 444 197 460 c 0,64,52
 197 471 197 471 214 491 c 128,-1,53
370 498 m 0,65,66
 382 512 382 512 396 512 c 128,-1,67
 410 512 410 512 432 495 c 0,68,69
 452 479 452 479 452 455 c 0,70,71
 452 436 452 436 439.5 422 c 128,-1,72
 427 408 427 408 406 408 c 0,73,74
 384 408 384 408 370 424 c 128,-1,75
 356 440 356 440 356 461 c 0,76,77
 356 483 356 483 370 498 c 0,65,66
214 339 m 128,-1,79
 231 359 231 359 245 359 c 0,80,81
 258 359 258 359 280 343 c 0,82,83
 300 327 300 327 300 303 c 0,84,85
 300 284 300 284 287 270 c 128,-1,86
 274 256 274 256 252 256 c 0,87,88
 235 256 235 256 216 274 c 128,-1,89
 197 292 197 292 197 308 c 0,90,78
 197 319 197 319 214 339 c 128,-1,79
369 340 m 0,91,92
 387 360 387 360 402 360 c 0,93,94
 418 360 418 360 435.5 341.5 c 128,-1,95
 453 323 453 323 453 306 c 0,96,97
 453 284 453 284 439 270.5 c 128,-1,98
 425 257 425 257 406 257 c 0,99,100
 382 257 382 257 366 277 c 0,101,102
 350 296 350 296 350 309 c 128,-1,103
 350 322 350 322 369 340 c 0,91,92
EndSplineSet
EndChar

StartChar: T
Encoding: 84 84 40
AltUni2: 000074.ffffffff.0
Width: 673
Flags: W
LayerCount: 2
Fore
SplineSet
407 419 m 0,0,1
 402 443 402 443 390 461 c 0,2,3
 386 467 386 467 383 467 c 0,4,5
 379 467 379 467 378 410 c 0,6,7
 378 344 378 344 382 344 c 0,8,9
 389 344 389 344 398.5 368.5 c 128,-1,10
 408 393 408 393 408 412 c 0,11,12
 408 414 408 414 407.5 416 c 128,-1,13
 407 418 407 418 407 419 c 0,0,1
298 328 m 1,14,-1
 298 496 l 1,15,-1
 222 496 l 2,16,17
 165 496 165 496 154 493 c 128,-1,18
 143 490 143 490 137 474 c 0,19,20
 123 437 123 437 123 404 c 0,21,22
 123 383 123 383 129 362 c 2,23,-1
 139 328 l 1,24,-1
 298 328 l 1,14,-1
432 591 m 0,25,26
 380 616 380 616 332 616 c 0,27,28
 299 616 299 616 262 603 c 0,29,30
 224 589 224 589 224 583 c 0,31,32
 224 576 224 576 295 576 c 0,33,34
 353 576 353 576 368 572.5 c 128,-1,35
 383 569 383 569 411 548 c 0,36,37
 447 522 447 522 467.5 482.5 c 128,-1,38
 488 443 488 443 488 402 c 0,39,40
 488 376 488 376 479 350 c 0,41,42
 466 315 466 315 431 282 c 2,43,-1
 398 249 l 1,44,-1
 300 247 l 2,45,46
 207 245 207 245 207 239 c 0,47,48
 207 234 207 234 243 215 c 0,49,50
 287 193 287 193 335 193 c 0,51,52
 419 193 419 193 482.5 254.5 c 128,-1,53
 546 316 546 316 546 406 c 0,54,55
 546 535 546 535 432 591 c 0,25,26
276 688 m 0,56,57
 308 695 308 695 334 695 c 0,58,59
 364 695 364 695 403 685 c 0,60,61
 467 670 467 670 519.5 626.5 c 128,-1,62
 572 583 572 583 601 520 c 0,63,64
 623 471 623 471 623 407 c 0,65,66
 623 345 623 345 603 294 c 0,67,68
 585 248 585 248 545 207 c 128,-1,69
 505 166 505 166 455 143 c 0,70,71
 400 117 400 117 338 117 c 0,72,73
 246 117 246 117 168 172 c 128,-1,74
 90 227 90 227 61 318 c 0,75,76
 50 356 50 356 50 400 c 0,77,78
 50 476 50 476 76 530 c 0,79,80
 104 586 104 586 161 631 c 128,-1,81
 218 676 218 676 276 688 c 0,56,57
EndSplineSet
EndChar

StartChar: U
Encoding: 85 85 41
AltUni2: 000075.ffffffff.0
Width: 673
Flags: W
LayerCount: 2
Fore
SplineSet
184 503 m 0,0,1
 171 527 171 527 167 527 c 128,-1,2
 163 527 163 527 157 518 c 0,3,4
 144 502 144 502 134.5 465.5 c 128,-1,5
 125 429 125 429 125 398 c 0,6,7
 125 387 125 387 126 382 c 0,8,9
 131 349 131 349 144.5 317 c 128,-1,10
 158 285 158 285 168 285 c 0,11,12
 175 285 175 285 190 324 c 0,13,14
 201 357 201 357 201 403 c 0,15,16
 201 469 201 469 184 503 c 0,0,1
408 602 m 0,17,18
 374 614 374 614 335 614 c 0,19,20
 306 614 306 614 276 606 c 0,21,22
 233 595 233 595 233 581 c 0,23,24
 233 574 233 574 240 567 c 0,25,26
 254 550 254 550 268 506 c 0,27,28
 278 472 278 472 284 466 c 128,-1,29
 290 460 290 460 315 458 c 0,30,31
 319 458 319 458 324.5 457.5 c 128,-1,32
 330 457 330 457 332 457 c 0,33,34
 344 457 344 457 344 462 c 0,35,36
 344 464 344 464 341 470 c 0,37,38
 331 485 331 485 312 503 c 0,39,40
 292 523 292 523 292 540 c 0,41,42
 292 555 292 555 306 569.5 c 128,-1,43
 320 584 320 584 334 584 c 128,-1,44
 348 584 348 584 412 509 c 128,-1,45
 476 434 476 434 476 418 c 0,46,47
 476 405 476 405 438 353.5 c 128,-1,48
 400 302 400 302 368 273 c 0,49,50
 352 258 352 258 341 258 c 0,51,52
 334 258 334 258 325 261 c 0,53,54
 300 270 300 270 300 300 c 0,55,56
 300 325 300 325 320 344 c 0,57,58
 339 362 339 362 339 369 c 128,-1,59
 339 376 339 376 312 376 c 0,60,61
 294 376 294 376 288.5 372 c 128,-1,62
 283 368 283 368 279 354 c 0,63,64
 261 271 261 271 240 243 c 0,65,66
 230 232 230 232 230 224 c 0,67,68
 230 215 230 215 273 203 c 0,69,70
 306 194 306 194 338 194 c 0,71,72
 406 194 406 194 459.5 231.5 c 128,-1,73
 513 269 513 269 535 334 c 0,74,75
 547 367 547 367 547 402 c 0,76,77
 547 468 547 468 508.5 524.5 c 128,-1,78
 470 581 470 581 408 602 c 0,17,18
291 687 m 0,79,80
 316 690 316 690 339 690 c 0,81,82
 448 690 448 690 532 610 c 0,83,84
 623 525 623 525 623 403 c 0,85,86
 623 320 623 320 577 248.5 c 128,-1,87
 531 177 531 177 448 138 c 0,88,89
 396 115 396 115 336 115 c 0,90,91
 274 115 274 115 222 139 c 0,92,93
 180 159 180 159 138.5 198.5 c 128,-1,94
 97 238 97 238 76 278 c 0,95,96
 50 329 50 329 50 404 c 128,-1,97
 50 479 50 479 76 530 c 0,98,99
 108 590 108 590 169 635 c 128,-1,100
 230 680 230 680 291 687 c 0,79,80
EndSplineSet
EndChar

StartChar: V
Encoding: 86 86 42
AltUni2: 000076.ffffffff.0
Width: 668
Flags: W
LayerCount: 2
Fore
SplineSet
514 516 m 0,0,1
 490 558 490 558 481 558 c 0,2,3
 468 558 468 558 310 282 c 0,4,5
 271 213 271 213 271 206 c 0,6,7
 271 202 271 202 302 198 c 2,8,-1
 330 196 l 1,9,-1
 334 248 l 2,10,11
 336 281 336 281 344 302.5 c 128,-1,12
 352 324 352 324 377 368 c 0,13,14
 420 441 420 441 438.5 464.5 c 128,-1,15
 457 488 457 488 474 488 c 0,16,17
 488 488 488 488 499 475.5 c 128,-1,18
 510 463 510 463 510 446 c 0,19,20
 510 437 510 437 462 354 c 0,21,22
 414 272 414 272 414 244 c 128,-1,23
 414 216 414 216 426 216 c 128,-1,24
 438 216 438 216 473 248 c 0,25,26
 509 282 509 282 525 316 c 128,-1,27
 541 350 541 350 541 397 c 0,28,29
 541 400 541 400 540.5 406 c 128,-1,30
 540 412 540 412 540 416 c 0,31,32
 538 454 538 454 533.5 472.5 c 128,-1,33
 529 491 529 491 514 516 c 0,0,1
166 367 m 0,34,35
 166 377 166 377 195.5 429.5 c 128,-1,36
 225 482 225 482 257 535.5 c 128,-1,37
 289 589 289 589 291 594 c 0,38,39
 298 610 298 610 298 611 c 0,40,41
 298 614 298 614 295 614 c 0,42,43
 289 614 289 614 258 603 c 0,44,45
 197 582 197 582 159.5 524.5 c 128,-1,46
 122 467 122 467 122 401 c 0,47,48
 122 358 122 358 140 319 c 0,49,50
 154 290 154 290 170 272 c 128,-1,51
 186 254 186 254 197 254 c 0,52,53
 200 254 200 254 204 258 c 0,54,55
 222 282 222 282 309 437.5 c 128,-1,56
 396 593 396 593 396 601 c 0,57,58
 396 602 396 602 391.5 596.5 c 128,-1,59
 387 591 387 591 379 579 c 128,-1,60
 371 567 371 567 361 551.5 c 128,-1,61
 351 536 351 536 338 515.5 c 128,-1,62
 325 495 325 495 313 474 c 0,63,64
 261 387 261 387 243 363.5 c 128,-1,65
 225 340 225 340 211 338 c 2,66,-1
 204 338 l 2,67,68
 187 338 187 338 176.5 346 c 128,-1,69
 166 354 166 354 166 367 c 0,34,35
261 686 m 0,70,71
 290 694 290 694 324 694 c 0,72,73
 395 694 395 694 450 669 c 0,74,75
 494 649 494 649 535.5 609.5 c 128,-1,76
 577 570 577 570 596 529 c 0,77,78
 611 500 611 500 614.5 479.5 c 128,-1,79
 618 459 618 459 618 408 c 0,80,81
 618 359 618 359 614.5 338 c 128,-1,82
 611 317 611 317 597 288 c 0,83,84
 578 247 578 247 540 208 c 128,-1,85
 502 169 502 169 461 146 c 0,86,87
 432 131 432 131 412.5 127.5 c 128,-1,88
 393 124 393 124 334 124 c 0,89,90
 278 124 278 124 257.5 127.5 c 128,-1,91
 237 131 237 131 209 146 c 0,92,93
 167 168 167 168 129.5 206 c 128,-1,94
 92 244 92 244 72 286 c 0,95,96
 58 316 58 316 54 337 c 128,-1,97
 50 358 50 358 50 404 c 128,-1,98
 50 450 50 450 54 471.5 c 128,-1,99
 58 493 58 493 71 521 c 0,100,101
 130 648 130 648 261 686 c 0,70,71
EndSplineSet
EndChar

StartChar: W
Encoding: 87 87 43
AltUni2: 000077.ffffffff.0
Width: 660
Flags: W
LayerCount: 2
Fore
SplineSet
483 549 m 0,0,1
 448 584 448 584 440 584 c 0,2,3
 430 584 430 584 430 476 c 2,4,-1
 430 367 l 1,5,-1
 398 334 l 2,6,7
 336 270 336 270 322 214 c 0,8,9
 319 205 319 205 319 201 c 0,10,11
 319 192 319 192 347 192 c 0,12,13
 376 192 376 192 413.5 208.5 c 128,-1,14
 451 225 451 225 476 250 c 0,15,16
 541 312 541 312 541 403 c 0,17,18
 541 488 541 488 483 549 c 0,0,1
244 522 m 0,19,20
 245 530 245 530 245 545 c 0,21,22
 245 580 245 580 240 585 c 0,23,24
 238 587 238 587 234 587 c 0,25,26
 220 587 220 587 192 561 c 128,-1,27
 164 535 164 535 148 506 c 0,28,29
 126 465 126 465 120 426 c 0,30,31
 119 421 119 421 119 410 c 0,32,33
 119 381 119 381 126 351 c 128,-1,34
 133 321 133 321 140 321 c 0,35,36
 146 321 146 321 193 394 c 0,37,38
 226 444 226 444 234 464 c 128,-1,39
 242 484 242 484 244 522 c 0,19,20
348 511 m 2,40,41
 345 611 345 611 336 614 c 2,42,-1
 335 614 l 2,43,44
 326 614 326 614 326 538 c 2,45,-1
 326 458 l 1,46,-1
 262 356 l 2,47,48
 198 254 198 254 198 245 c 0,49,50
 198 240 198 240 211.5 228.5 c 128,-1,51
 225 217 225 217 231 217 c 0,52,53
 233 217 233 217 233 218 c 2,54,-1
 260 272 l 2,55,56
 285 324 285 324 318 368 c 2,57,-1
 351 411 l 1,58,-1
 348 511 l 2,40,41
224 671 m 0,59,60
 266 687 266 687 328 687 c 0,61,62
 392 687 392 687 436 670 c 0,63,64
 478 654 478 654 522.5 614.5 c 128,-1,65
 567 575 567 575 589 532 c 0,66,67
 603 505 603 505 606.5 484.5 c 128,-1,68
 610 464 610 464 610 404 c 0,69,70
 610 318 610 318 592 278 c 0,71,72
 574 239 574 239 532 198 c 128,-1,73
 490 157 490 157 448 138 c 0,74,75
 398 116 398 116 330 116 c 0,76,77
 276 116 276 116 232 131 c 0,78,79
 192 145 192 145 145 187.5 c 128,-1,80
 98 230 98 230 74 274 c 0,81,82
 57 303 57 303 53.5 322.5 c 128,-1,83
 50 342 50 342 50 400 c 0,84,85
 50 457 50 457 53.5 478 c 128,-1,86
 57 499 57 499 72 530 c 0,87,88
 93 573 93 573 137 613.5 c 128,-1,89
 181 654 181 654 224 671 c 0,59,60
EndSplineSet
EndChar

StartChar: X
Encoding: 88 88 44
AltUni2: 000078.ffffffff.0
Width: 671
Flags: W
LayerCount: 2
Fore
SplineSet
541 406 m 0,0,1
 541 471 541 471 532 480 c 0,2,3
 526 486 526 486 526 481 c 0,4,5
 526 478 526 478 527 469 c 0,6,7
 528 465 528 465 528 450 c 0,8,9
 528 434 528 434 526 406 c 0,10,11
 522 377 522 377 509.5 357.5 c 128,-1,12
 497 338 497 338 444 278 c 0,13,14
 424 255 424 255 407 235 c 128,-1,15
 390 215 390 215 382 203.5 c 128,-1,16
 374 192 374 192 376 192 c 0,17,18
 391 192 391 192 427.5 211.5 c 128,-1,19
 464 231 464 231 483 250 c 0,20,21
 517 284 517 284 529 317 c 128,-1,22
 541 350 541 350 541 406 c 0,0,1
231 271 m 2,23,-1
 149 350 l 1,24,25
 148 373 148 373 145 421 c 128,-1,26
 142 469 142 469 141 492 c 1,27,-1
 131 454 l 2,28,29
 121 423 121 423 121 400 c 0,30,31
 121 384 121 384 133 339 c 0,32,33
 144 300 144 300 175 264 c 128,-1,34
 206 228 206 228 244 211 c 0,35,36
 282 193 282 193 293 193 c 0,37,38
 298 193 298 193 298 196 c 0,39,40
 298 207 298 207 231 271 c 2,23,-1
389 607 m 0,41,42
 357 615 357 615 331 615 c 0,43,44
 300 615 300 615 271 605 c 0,45,46
 236 592 236 592 227 580 c 128,-1,47
 218 568 218 568 218 527 c 0,48,49
 218 500 218 500 219 482 c 2,50,-1
 221 393 l 1,51,-1
 269 344 l 2,52,53
 314 297 314 297 330 288 c 0,54,55
 332 287 332 287 335 287 c 0,56,57
 348 287 348 287 395 342 c 2,58,-1
 449 404 l 1,59,-1
 449 489 l 2,60,61
 449 560 449 560 440 578 c 128,-1,62
 431 596 431 596 389 607 c 0,41,42
230 669 m 0,63,64
 272 687 272 687 315 687 c 0,65,66
 319 687 319 687 329 686.5 c 128,-1,67
 339 686 339 686 345 686 c 0,68,69
 436 682 436 682 497.5 640.5 c 128,-1,70
 559 599 559 599 599 514 c 0,71,72
 613 485 613 485 617 463.5 c 128,-1,73
 621 442 621 442 621 400 c 0,74,75
 621 354 621 354 616.5 334 c 128,-1,76
 612 314 612 314 595 279 c 0,77,78
 556 201 556 201 487 157.5 c 128,-1,79
 418 114 418 114 337 114 c 0,80,81
 292 114 292 114 250 127 c 0,82,83
 215 137 215 137 194.5 149.5 c 128,-1,84
 174 162 174 162 142 192 c 0,85,86
 96 235 96 235 76 277 c 128,-1,87
 56 319 56 319 51 381 c 0,88,89
 51 384 51 384 50.5 391 c 128,-1,90
 50 398 50 398 50 402 c 0,91,92
 50 492 50 492 97.5 562.5 c 128,-1,93
 145 633 145 633 230 669 c 0,63,64
307 579 m 0,94,95
 326 592 326 592 327 592 c 0,96,97
 335 592 335 592 349.5 580.5 c 128,-1,98
 364 569 364 569 369 559 c 0,99,100
 373 552 373 552 373 544 c 0,101,102
 373 528 373 528 358 515.5 c 128,-1,103
 343 503 343 503 325 503 c 0,104,105
 310 503 310 503 299 514 c 0,106,107
 289 524 289 524 289 540 c 0,108,109
 289 566 289 566 307 579 c 0,94,95
299 422 m 128,-1,111
 309 432 309 432 326 432 c 0,112,113
 352 432 352 432 365 413 c 0,114,115
 374 399 374 399 374 387 c 0,116,117
 374 372 374 372 363.5 362 c 128,-1,118
 353 352 353 352 335 352 c 0,119,120
 289 352 289 352 289 392 c 0,121,110
 289 412 289 412 299 422 c 128,-1,111
EndSplineSet
EndChar

StartChar: Y
Encoding: 89 89 45
AltUni2: 000079.ffffffff.0
Width: 663
Flags: W
LayerCount: 2
Fore
SplineSet
270 597 m 0,0,1
 270 600 270 600 269 600 c 0,2,3
 267 600 267 600 232 583 c 0,4,5
 184 559 184 559 151 506 c 128,-1,6
 118 453 118 453 118 399 c 0,7,8
 118 371 118 371 131 331.5 c 128,-1,9
 144 292 144 292 160 270 c 128,-1,10
 176 248 176 248 212.5 223.5 c 128,-1,11
 249 199 249 199 272 194 c 0,12,13
 277 193 277 193 284 193 c 0,14,15
 295 193 295 193 303.5 204 c 128,-1,16
 312 215 312 215 340 261 c 0,17,18
 382 334 382 334 382 340 c 0,19,20
 382 350 382 350 360 370 c 2,21,-1
 338 391 l 1,22,-1
 310 354 l 2,23,24
 273 304 273 304 254 304 c 0,25,26
 248 304 248 304 240 309 c 0,27,28
 223 320 223 320 223 339 c 0,29,30
 223 364 223 364 253 411 c 0,31,32
 283 456 283 456 300.5 474.5 c 128,-1,33
 318 493 318 493 333 493 c 0,34,35
 341 493 341 493 345 491 c 0,36,37
 366 483 366 483 417 426 c 0,38,39
 469 368 469 368 469 341 c 0,40,41
 469 318 469 318 435 262 c 0,42,43
 406 214 406 214 406 204 c 0,44,45
 406 202 406 202 407 202 c 2,46,-1
 410 202 l 2,47,48
 423 202 423 202 452 223.5 c 128,-1,49
 481 245 481 245 497 266 c 0,50,51
 540 324 540 324 540 396 c 0,52,53
 540 459 540 459 507.5 512.5 c 128,-1,54
 475 566 475 566 418 589 c 0,55,56
 401 596 401 596 398 596 c 0,57,58
 397 596 397 596 397 595 c 0,59,60
 397 590 397 590 444 542 c 0,61,62
 503 480 503 480 503 455 c 0,63,64
 503 441 503 441 487 432 c 0,65,66
 473 425 473 425 464 425 c 0,67,68
 443 425 443 425 391 476 c 0,69,70
 337 528 337 528 332 528 c 0,71,72
 326 528 326 528 274 465 c 0,73,74
 218 398 218 398 196 398 c 0,75,76
 186 398 186 398 175 406 c 0,77,78
 159 417 159 417 159 431 c 0,79,80
 159 455 159 455 214 523 c 0,81,82
 270 593 270 593 270 597 c 0,0,1
272 680 m 0,83,84
 293 685 293 685 324 685 c 0,85,86
 406 685 406 685 481 639.5 c 128,-1,87
 556 594 556 594 591 522 c 0,88,89
 609 482 609 482 612 406 c 0,90,91
 612 398 612 398 612.5 385.5 c 128,-1,92
 613 373 613 373 613 368 c 0,93,94
 613 324 613 324 594 281 c 0,95,96
 574 236 574 236 529 192 c 128,-1,97
 484 148 484 148 442 131 c 0,98,99
 401 116 401 116 326 116 c 0,100,101
 275 116 275 116 254.5 119.5 c 128,-1,102
 234 123 234 123 205 138 c 0,103,104
 165 157 165 157 125.5 197.5 c 128,-1,105
 86 238 86 238 68 278 c 128,-1,106
 50 318 50 318 50 400 c 0,107,108
 50 456 50 456 53.5 476 c 128,-1,109
 57 496 57 496 72 524 c 0,110,111
 102 581 102 581 158 624.5 c 128,-1,112
 214 668 214 668 272 680 c 0,83,84
EndSplineSet
EndChar

StartChar: Z
Encoding: 90 90 46
AltUni2: 00007a.ffffffff.0
Width: 660
Flags: W
LayerCount: 2
Fore
SplineSet
399 290 m 2,0,1
 343 344 343 344 336 344 c 0,2,3
 332 344 332 344 296.5 299 c 128,-1,4
 261 254 261 254 244 226 c 0,5,6
 242 222 242 222 242 221 c 0,7,8
 242 213 242 213 265 204 c 0,9,10
 290 193 290 193 329 193 c 0,11,12
 396 193 396 193 437 223 c 2,13,-1
 455 237 l 1,14,-1
 399 290 l 2,0,1
537 377 m 0,15,16
 534 384 534 384 476 384 c 2,17,-1
 419 384 l 1,18,-1
 458 344 l 2,19,20
 496 306 496 306 508 306 c 2,21,-1
 509 306 l 2,22,23
 516 307 516 307 527 332 c 128,-1,24
 538 357 538 357 538 371 c 0,25,26
 538 376 538 376 537 377 c 0,15,16
254 379 m 0,27,28
 254 384 254 384 191 384 c 0,29,30
 129 384 129 384 124 379 c 0,31,32
 122 377 122 377 122 371 c 0,33,34
 122 351 122 351 140.5 311.5 c 128,-1,35
 159 272 159 272 170 272 c 0,36,37
 176 272 176 272 215 321.5 c 128,-1,38
 254 371 254 371 254 379 c 0,27,28
332 494 m 0,39,40
 284 495 284 495 222 495 c 0,41,42
 168 495 168 495 154 492.5 c 128,-1,43
 140 490 140 490 134 480 c 0,44,45
 134 479 134 479 132.5 476.5 c 128,-1,46
 131 474 131 474 131 473 c 0,47,48
 131 467 131 467 163 465.5 c 128,-1,49
 195 464 195 464 326 464 c 0,50,51
 464 464 464 464 494 465.5 c 128,-1,52
 524 467 524 467 524 476 c 0,53,54
 524 487 524 487 494 489.5 c 128,-1,55
 464 492 464 492 332 494 c 0,39,40
422 594 m 2,56,57
 379 614 379 614 328 614 c 0,58,59
 268 614 268 614 218 586 c 0,60,61
 215 584 215 584 215 583 c 0,62,63
 215 577 215 577 330 577 c 2,64,-1
 458 578 l 1,65,-1
 422 594 l 2,56,57
281 688 m 0,66,67
 305 691 305 691 328 691 c 0,68,69
 412 691 412 691 480.5 650 c 128,-1,70
 549 609 549 609 589 532 c 0,71,72
 603 505 603 505 606.5 484.5 c 128,-1,73
 610 464 610 464 610 404 c 0,74,75
 610 346 610 346 607 324.5 c 128,-1,76
 604 303 604 303 592 281 c 0,77,78
 570 241 570 241 531.5 203 c 128,-1,79
 493 165 493 165 455 146 c 0,80,81
 426 131 426 131 405.5 127.5 c 128,-1,82
 385 124 385 124 334 124 c 0,83,84
 259 124 259 124 218 139 c 0,85,86
 181 153 181 153 137 194.5 c 128,-1,87
 93 236 93 236 71 276 c 0,88,89
 57 303 57 303 53.5 323.5 c 128,-1,90
 50 344 50 344 50 404 c 0,91,92
 50 462 50 462 53 484 c 128,-1,93
 56 506 56 506 68 530 c 0,94,95
 98 589 98 589 158.5 634 c 128,-1,96
 219 679 219 679 281 688 c 0,66,67
EndSplineSet
EndChar

StartChar: bar
Encoding: 124 124 47
Width: 354
Flags: W
LayerCount: 2
Fore
SplineSet
266 696 m 0,0,1
 275 699 275 699 281 699 c 0,2,3
 297 699 297 699 297 674 c 0,4,5
 297 672 297 672 296.5 667.5 c 128,-1,6
 296 663 296 663 296 660 c 0,7,8
 294 639 294 639 287 630.5 c 128,-1,9
 280 622 280 622 252 607 c 0,10,11
 211 586 211 586 195.5 571.5 c 128,-1,12
 180 557 180 557 160 521 c 0,13,14
 133 472 133 472 133 416 c 0,15,16
 133 350 133 350 169.5 295.5 c 128,-1,17
 206 241 206 241 269 219 c 0,18,19
 286 213 286 213 290 206 c 128,-1,20
 294 199 294 199 294 175 c 0,21,22
 294 141 294 141 280 138 c 2,23,-1
 275 138 l 2,24,25
 253 138 253 138 211.5 161.5 c 128,-1,26
 170 185 170 185 140 215 c 0,27,28
 53 304 53 304 53 418 c 0,29,30
 53 499 53 499 99 570 c 0,31,32
 127 613 127 613 173 647.5 c 128,-1,33
 219 682 219 682 266 696 c 0,0,1
EndSplineSet
EndChar

